ISO-10303-21;
HEADER;
/* Generated by software containing ST-Developer
 * from STEP Tools, Inc. (www.steptools.com) 
 */

FILE_DESCRIPTION(
/* description */ (''),
/* implementation_level */ '2;1');

FILE_NAME(
/* name */ 'Gehaeuse.step',
/* time_stamp */ '2026-09-26T20:03:09+02:00',
/* author */ (''),
/* organization */ (''),
/* preprocessor_version */ 'ST-DEVELOPER v20.2',
/* originating_system */ 'Autodesk Translation Framework v15.15.0.0',
/* authorisation */ '');

FILE_SCHEMA (('AUTOMOTIVE_DESIGN { 1 0 10303 214 3 1 1 }'));
ENDSEC;

DATA;
#10=MECHANICAL_DESIGN_GEOMETRIC_PRESENTATION_REPRESENTATION('',(#13),#1280);
#11=SHAPE_REPRESENTATION_RELATIONSHIP('SRR','None',#1287,#12);
#12=ADVANCED_BREP_SHAPE_REPRESENTATION('',(#14),#1279);
#13=STYLED_ITEM('',(#1297),#14);
#14=MANIFOLD_SOLID_BREP('Gehaeuse',#696);
#15=(
BOUNDED_CURVE()
B_SPLINE_CURVE(2,(#1191,#1192,#1193),.UNSPECIFIED.,.F.,.F.)
B_SPLINE_CURVE_WITH_KNOTS((3,3),(0.198887964721259,0.500572144537616),
 .UNSPECIFIED.)
CURVE()
GEOMETRIC_REPRESENTATION_ITEM()
RATIONAL_B_SPLINE_CURVE((1.0026863750312,1.00391428503478,1.0026863750312))
REPRESENTATION_ITEM('')
);
#16=(
BOUNDED_CURVE()
B_SPLINE_CURVE(2,(#1196,#1197,#1198),.UNSPECIFIED.,.F.,.F.)
B_SPLINE_CURVE_WITH_KNOTS((3,3),(0.19888796472125,0.500572144537609),
 .UNSPECIFIED.)
CURVE()
GEOMETRIC_REPRESENTATION_ITEM()
RATIONAL_B_SPLINE_CURVE((1.0026863750312,1.00391428503479,1.0026863750312))
REPRESENTATION_ITEM('')
);
#17=TOROIDAL_SURFACE('',#746,30.8,1.2);
#18=B_SPLINE_CURVE_WITH_KNOTS('',3,(#1132,#1133,#1134,#1135,#1136,#1137,
#1138,#1139,#1140,#1141,#1142,#1143,#1144,#1145),.UNSPECIFIED.,.F.,.F.,
(4,2,2,2,2,2,4),(-0.406306022144857,-0.405742762585939,-0.371955015446951,
-0.338673249923219,-0.288517441266759,-0.244376692470001,-0.202871381292965),
 .UNSPECIFIED.);
#19=B_SPLINE_CURVE_WITH_KNOTS('',3,(#1151,#1152,#1153,#1154,#1155,#1156,
#1157,#1158,#1159,#1160,#1161,#1162,#1163,#1164),.UNSPECIFIED.,.F.,.F.,
(4,2,2,2,2,2,4),(-0.000563259558915389,0.,0.0337877471390362,0.0670695126628408,
0.11722532131941,0.161366070116266,0.20287138129339),.UNSPECIFIED.);
#20=B_SPLINE_SURFACE_WITH_KNOTS('',3,3,((#1028,#1029,#1030,#1031,#1032),
(#1033,#1034,#1035,#1036,#1037),(#1038,#1039,#1040,#1041,#1042),(#1043,
#1044,#1045,#1046,#1047),(#1048,#1049,#1050,#1051,#1052)),.UNSPECIFIED.,
 .F.,.F.,.F.,(4,1,4),(4,1,4),(0.,0.571428571428571,1.),(-1.57079632679491,
-0.897597901025656,1.60972922987406E-14),.UNSPECIFIED.);
#21=B_SPLINE_SURFACE_WITH_KNOTS('',3,3,((#1061,#1062,#1063,#1064,#1065),
(#1066,#1067,#1068,#1069,#1070),(#1071,#1072,#1073,#1074,#1075),(#1076,
#1077,#1078,#1079,#1080),(#1081,#1082,#1083,#1084,#1085)),.UNSPECIFIED.,
 .F.,.F.,.F.,(4,1,4),(4,1,4),(0.,0.571428571428571,1.),(-1.57079632679491,
-0.897597901025656,1.61329283265843E-14),.UNSPECIFIED.);
#22=ELLIPSE('',#721,45.2548339959391,32.);
#23=ELLIPSE('',#724,0.310582854123025,0.3);
#24=ELLIPSE('',#726,1.50215235887549,1.5);
#25=ELLIPSE('',#728,1.50215235887549,1.5);
#26=ELLIPSE('',#730,0.310582854123025,0.3);
#27=ELLIPSE('',#732,2.12132034355964,1.5);
#28=ELLIPSE('',#733,2.12132034355964,1.5);
#29=ELLIPSE('',#735,1.73205080756888,1.5);
#30=ELLIPSE('',#737,1.73205080756888,1.5);
#31=CYLINDRICAL_SURFACE('',#715,17.);
#32=CYLINDRICAL_SURFACE('',#719,32.);
#33=CYLINDRICAL_SURFACE('',#731,1.5);
#34=CYLINDRICAL_SURFACE('',#734,1.5);
#35=CYLINDRICAL_SURFACE('',#736,1.5);
#36=CYLINDRICAL_SURFACE('',#738,1.2);
#37=CYLINDRICAL_SURFACE('',#742,1.2);
#38=CYLINDRICAL_SURFACE('',#745,1.2);
#39=CYLINDRICAL_SURFACE('',#759,30.);
#40=CYLINDRICAL_SURFACE('',#763,0.750000000000001);
#41=CYLINDRICAL_SURFACE('',#767,0.75);
#42=CYLINDRICAL_SURFACE('',#780,19.5);
#43=CYLINDRICAL_SURFACE('',#784,20.5);
#44=CYLINDRICAL_SURFACE('',#785,18.);
#45=CYLINDRICAL_SURFACE('',#786,30.);
#46=FACE_BOUND('',#112,.T.);
#47=FACE_BOUND('',#123,.T.);
#48=FACE_BOUND('',#146,.T.);
#49=FACE_BOUND('',#147,.T.);
#50=FACE_BOUND('',#148,.T.);
#51=FACE_BOUND('',#149,.T.);
#52=PLANE('',#713);
#53=PLANE('',#739);
#54=PLANE('',#743);
#55=PLANE('',#744);
#56=PLANE('',#747);
#57=PLANE('',#748);
#58=PLANE('',#749);
#59=PLANE('',#751);
#60=PLANE('',#752);
#61=PLANE('',#753);
#62=PLANE('',#754);
#63=PLANE('',#766);
#64=PLANE('',#770);
#65=PLANE('',#771);
#66=PLANE('',#772);
#67=PLANE('',#773);
#68=PLANE('',#777);
#69=PLANE('',#782);
#70=FACE_OUTER_BOUND('',#110,.T.);
#71=FACE_OUTER_BOUND('',#111,.T.);
#72=FACE_OUTER_BOUND('',#113,.T.);
#73=FACE_OUTER_BOUND('',#114,.T.);
#74=FACE_OUTER_BOUND('',#115,.T.);
#75=FACE_OUTER_BOUND('',#116,.T.);
#76=FACE_OUTER_BOUND('',#117,.T.);
#77=FACE_OUTER_BOUND('',#118,.T.);
#78=FACE_OUTER_BOUND('',#119,.T.);
#79=FACE_OUTER_BOUND('',#120,.T.);
#80=FACE_OUTER_BOUND('',#121,.T.);
#81=FACE_OUTER_BOUND('',#122,.T.);
#82=FACE_OUTER_BOUND('',#124,.T.);
#83=FACE_OUTER_BOUND('',#125,.T.);
#84=FACE_OUTER_BOUND('',#126,.T.);
#85=FACE_OUTER_BOUND('',#127,.T.);
#86=FACE_OUTER_BOUND('',#128,.T.);
#87=FACE_OUTER_BOUND('',#129,.T.);
#88=FACE_OUTER_BOUND('',#130,.T.);
#89=FACE_OUTER_BOUND('',#131,.T.);
#90=FACE_OUTER_BOUND('',#132,.T.);
#91=FACE_OUTER_BOUND('',#133,.T.);
#92=FACE_OUTER_BOUND('',#134,.T.);
#93=FACE_OUTER_BOUND('',#135,.T.);
#94=FACE_OUTER_BOUND('',#136,.T.);
#95=FACE_OUTER_BOUND('',#137,.T.);
#96=FACE_OUTER_BOUND('',#138,.T.);
#97=FACE_OUTER_BOUND('',#139,.T.);
#98=FACE_OUTER_BOUND('',#140,.T.);
#99=FACE_OUTER_BOUND('',#141,.T.);
#100=FACE_OUTER_BOUND('',#142,.T.);
#101=FACE_OUTER_BOUND('',#143,.T.);
#102=FACE_OUTER_BOUND('',#144,.T.);
#103=FACE_OUTER_BOUND('',#145,.T.);
#104=FACE_OUTER_BOUND('',#150,.T.);
#105=FACE_OUTER_BOUND('',#151,.T.);
#106=FACE_OUTER_BOUND('',#152,.T.);
#107=FACE_OUTER_BOUND('',#153,.T.);
#108=FACE_OUTER_BOUND('',#154,.T.);
#109=FACE_OUTER_BOUND('',#155,.T.);
#110=EDGE_LOOP('',(#456,#457,#458,#459));
#111=EDGE_LOOP('',(#460));
#112=EDGE_LOOP('',(#461));
#113=EDGE_LOOP('',(#462,#463,#464,#465));
#114=EDGE_LOOP('',(#466,#467,#468,#469));
#115=EDGE_LOOP('',(#470,#471,#472,#473,#474,#475,#476,#477));
#116=EDGE_LOOP('',(#478,#479,#480,#481));
#117=EDGE_LOOP('',(#482,#483,#484,#485));
#118=EDGE_LOOP('',(#486,#487,#488,#489));
#119=EDGE_LOOP('',(#490,#491,#492,#493,#494));
#120=EDGE_LOOP('',(#495,#496,#497,#498,#499));
#121=EDGE_LOOP('',(#500,#501,#502,#503));
#122=EDGE_LOOP('',(#504,#505,#506,#507,#508,#509));
#123=EDGE_LOOP('',(#510,#511,#512,#513));
#124=EDGE_LOOP('',(#514,#515,#516,#517));
#125=EDGE_LOOP('',(#518,#519,#520,#521));
#126=EDGE_LOOP('',(#522,#523,#524,#525,#526,#527));
#127=EDGE_LOOP('',(#528,#529,#530,#531));
#128=EDGE_LOOP('',(#532,#533,#534,#535,#536));
#129=EDGE_LOOP('',(#537,#538,#539,#540));
#130=EDGE_LOOP('',(#541,#542,#543,#544));
#131=EDGE_LOOP('',(#545,#546,#547,#548));
#132=EDGE_LOOP('',(#549,#550,#551,#552,#553,#554,#555,#556));
#133=EDGE_LOOP('',(#557,#558,#559,#560));
#134=EDGE_LOOP('',(#561,#562,#563,#564,#565,#566,#567,#568));
#135=EDGE_LOOP('',(#569,#570,#571,#572));
#136=EDGE_LOOP('',(#573,#574,#575,#576,#577,#578,#579,#580));
#137=EDGE_LOOP('',(#581,#582,#583,#584,#585));
#138=EDGE_LOOP('',(#586,#587,#588,#589,#590,#591,#592,#593));
#139=EDGE_LOOP('',(#594,#595,#596,#597));
#140=EDGE_LOOP('',(#598));
#141=EDGE_LOOP('',(#599,#600,#601,#602));
#142=EDGE_LOOP('',(#603));
#143=EDGE_LOOP('',(#604,#605,#606,#607,#608,#609));
#144=EDGE_LOOP('',(#610,#611,#612,#613,#614,#615));
#145=EDGE_LOOP('',(#616));
#146=EDGE_LOOP('',(#617));
#147=EDGE_LOOP('',(#618));
#148=EDGE_LOOP('',(#619,#620,#621,#622));
#149=EDGE_LOOP('',(#623));
#150=EDGE_LOOP('',(#624,#625,#626,#627));
#151=EDGE_LOOP('',(#628,#629,#630,#631));
#152=EDGE_LOOP('',(#632,#633,#634,#635));
#153=EDGE_LOOP('',(#636,#637,#638,#639));
#154=EDGE_LOOP('',(#640,#641,#642,#643));
#155=EDGE_LOOP('',(#644,#645,#646,#647,#648,#649,#650,#651));
#156=LINE('',#1003,#211);
#157=LINE('',#1010,#212);
#158=LINE('',#1015,#213);
#159=LINE('',#1021,#214);
#160=LINE('',#1025,#215);
#161=LINE('',#1027,#216);
#162=LINE('',#1097,#217);
#163=LINE('',#1101,#218);
#164=LINE('',#1105,#219);
#165=LINE('',#1106,#220);
#166=LINE('',#1109,#221);
#167=LINE('',#1111,#222);
#168=LINE('',#1114,#223);
#169=LINE('',#1115,#224);
#170=LINE('',#1118,#225);
#171=LINE('',#1121,#226);
#172=LINE('',#1126,#227);
#173=LINE('',#1128,#228);
#174=LINE('',#1129,#229);
#175=LINE('',#1131,#230);
#176=LINE('',#1147,#231);
#177=LINE('',#1149,#232);
#178=LINE('',#1165,#233);
#179=LINE('',#1174,#234);
#180=LINE('',#1176,#235);
#181=LINE('',#1177,#236);
#182=LINE('',#1180,#237);
#183=LINE('',#1182,#238);
#184=LINE('',#1184,#239);
#185=LINE('',#1186,#240);
#186=LINE('',#1187,#241);
#187=LINE('',#1188,#242);
#188=LINE('',#1195,#243);
#189=LINE('',#1201,#244);
#190=LINE('',#1202,#245);
#191=LINE('',#1204,#246);
#192=LINE('',#1205,#247);
#193=LINE('',#1206,#248);
#194=LINE('',#1212,#249);
#195=LINE('',#1220,#250);
#196=LINE('',#1225,#251);
#197=LINE('',#1232,#252);
#198=LINE('',#1238,#253);
#199=LINE('',#1240,#254);
#200=LINE('',#1242,#255);
#201=LINE('',#1244,#256);
#202=LINE('',#1246,#257);
#203=LINE('',#1247,#258);
#204=LINE('',#1251,#259);
#205=LINE('',#1253,#260);
#206=LINE('',#1255,#261);
#207=LINE('',#1257,#262);
#208=LINE('',#1259,#263);
#209=LINE('',#1260,#264);
#210=LINE('',#1276,#265);
#211=VECTOR('',#793,17.4);
#212=VECTOR('',#802,17.);
#213=VECTOR('',#809,31.5);
#214=VECTOR('',#814,10.);
#215=VECTOR('',#817,10.);
#216=VECTOR('',#820,32.);
#217=VECTOR('',#839,10.);
#218=VECTOR('',#842,10.);
#219=VECTOR('',#847,10.);
#220=VECTOR('',#848,10.);
#221=VECTOR('',#853,10.);
#222=VECTOR('',#854,10.);
#223=VECTOR('',#859,10.);
#224=VECTOR('',#860,10.);
#225=VECTOR('',#863,10.);
#226=VECTOR('',#866,10.);
#227=VECTOR('',#869,10.);
#228=VECTOR('',#870,10.);
#229=VECTOR('',#871,10.);
#230=VECTOR('',#874,10.);
#231=VECTOR('',#877,10.);
#232=VECTOR('',#880,10.);
#233=VECTOR('',#883,10.);
#234=VECTOR('',#894,10.);
#235=VECTOR('',#895,10.);
#236=VECTOR('',#896,10.);
#237=VECTOR('',#899,10.);
#238=VECTOR('',#900,10.);
#239=VECTOR('',#901,10.);
#240=VECTOR('',#902,10.);
#241=VECTOR('',#903,10.);
#242=VECTOR('',#904,10.);
#243=VECTOR('',#907,10.);
#244=VECTOR('',#910,10.);
#245=VECTOR('',#911,10.);
#246=VECTOR('',#912,10.);
#247=VECTOR('',#913,10.);
#248=VECTOR('',#914,10.);
#249=VECTOR('',#921,30.2);
#250=VECTOR('',#934,30.2);
#251=VECTOR('',#939,0.750000000000001);
#252=VECTOR('',#948,0.75);
#253=VECTOR('',#955,10.);
#254=VECTOR('',#956,10.);
#255=VECTOR('',#957,10.);
#256=VECTOR('',#958,10.);
#257=VECTOR('',#959,10.);
#258=VECTOR('',#960,10.);
#259=VECTOR('',#963,10.);
#260=VECTOR('',#964,10.);
#261=VECTOR('',#965,10.);
#262=VECTOR('',#966,10.);
#263=VECTOR('',#967,10.);
#264=VECTOR('',#968,10.);
#265=VECTOR('',#997,30.);
#266=CIRCLE('',#711,17.8);
#267=CIRCLE('',#712,17.);
#268=CIRCLE('',#714,31.);
#269=CIRCLE('',#716,17.);
#270=CIRCLE('',#718,32.);
#271=CIRCLE('',#720,32.);
#272=CIRCLE('',#722,32.);
#273=CIRCLE('',#723,1.2);
#274=CIRCLE('',#725,1.2);
#275=CIRCLE('',#727,1.2);
#276=CIRCLE('',#729,1.2);
#277=CIRCLE('',#740,30.8);
#278=CIRCLE('',#741,30.);
#279=CIRCLE('',#750,30.);
#280=CIRCLE('',#756,30.);
#281=CIRCLE('',#757,30.5);
#282=CIRCLE('',#758,30.);
#283=CIRCLE('',#760,30.);
#284=CIRCLE('',#761,30.);
#285=CIRCLE('',#764,0.750000000000001);
#286=CIRCLE('',#765,0.750000000000001);
#287=CIRCLE('',#768,0.75);
#288=CIRCLE('',#769,0.75);
#289=CIRCLE('',#774,30.);
#290=CIRCLE('',#775,18.);
#291=CIRCLE('',#776,20.5);
#292=CIRCLE('',#778,19.5);
#293=CIRCLE('',#779,18.);
#294=CIRCLE('',#781,19.5);
#295=CIRCLE('',#783,20.5);
#296=VERTEX_POINT('',#1000);
#297=VERTEX_POINT('',#1002);
#298=VERTEX_POINT('',#1006);
#299=VERTEX_POINT('',#1009);
#300=VERTEX_POINT('',#1013);
#301=VERTEX_POINT('',#1017);
#302=VERTEX_POINT('',#1018);
#303=VERTEX_POINT('',#1020);
#304=VERTEX_POINT('',#1022);
#305=VERTEX_POINT('',#1024);
#306=VERTEX_POINT('',#1053);
#307=VERTEX_POINT('',#1054);
#308=VERTEX_POINT('',#1056);
#309=VERTEX_POINT('',#1058);
#310=VERTEX_POINT('',#1086);
#311=VERTEX_POINT('',#1087);
#312=VERTEX_POINT('',#1089);
#313=VERTEX_POINT('',#1091);
#314=VERTEX_POINT('',#1095);
#315=VERTEX_POINT('',#1096);
#316=VERTEX_POINT('',#1098);
#317=VERTEX_POINT('',#1100);
#318=VERTEX_POINT('',#1104);
#319=VERTEX_POINT('',#1110);
#320=VERTEX_POINT('',#1117);
#321=VERTEX_POINT('',#1119);
#322=VERTEX_POINT('',#1122);
#323=VERTEX_POINT('',#1123);
#324=VERTEX_POINT('',#1125);
#325=VERTEX_POINT('',#1127);
#326=VERTEX_POINT('',#1170);
#327=VERTEX_POINT('',#1171);
#328=VERTEX_POINT('',#1173);
#329=VERTEX_POINT('',#1175);
#330=VERTEX_POINT('',#1179);
#331=VERTEX_POINT('',#1181);
#332=VERTEX_POINT('',#1183);
#333=VERTEX_POINT('',#1185);
#334=VERTEX_POINT('',#1190);
#335=VERTEX_POINT('',#1194);
#336=VERTEX_POINT('',#1200);
#337=VERTEX_POINT('',#1203);
#338=VERTEX_POINT('',#1209);
#339=VERTEX_POINT('',#1211);
#340=VERTEX_POINT('',#1216);
#341=VERTEX_POINT('',#1222);
#342=VERTEX_POINT('',#1224);
#343=VERTEX_POINT('',#1229);
#344=VERTEX_POINT('',#1231);
#345=VERTEX_POINT('',#1236);
#346=VERTEX_POINT('',#1237);
#347=VERTEX_POINT('',#1239);
#348=VERTEX_POINT('',#1241);
#349=VERTEX_POINT('',#1243);
#350=VERTEX_POINT('',#1245);
#351=VERTEX_POINT('',#1249);
#352=VERTEX_POINT('',#1250);
#353=VERTEX_POINT('',#1252);
#354=VERTEX_POINT('',#1254);
#355=VERTEX_POINT('',#1256);
#356=VERTEX_POINT('',#1258);
#357=VERTEX_POINT('',#1262);
#358=EDGE_CURVE('',#296,#296,#266,.T.);
#359=EDGE_CURVE('',#296,#297,#156,.T.);
#360=EDGE_CURVE('',#297,#297,#267,.T.);
#361=EDGE_CURVE('',#298,#298,#268,.T.);
#362=EDGE_CURVE('',#297,#299,#157,.T.);
#363=EDGE_CURVE('',#299,#299,#269,.T.);
#364=EDGE_CURVE('',#300,#300,#270,.T.);
#365=EDGE_CURVE('',#300,#298,#158,.T.);
#366=EDGE_CURVE('',#301,#302,#271,.T.);
#367=EDGE_CURVE('',#301,#303,#159,.T.);
#368=EDGE_CURVE('',#303,#304,#22,.T.);
#369=EDGE_CURVE('',#304,#305,#160,.T.);
#370=EDGE_CURVE('',#302,#305,#272,.T.);
#371=EDGE_CURVE('',#302,#300,#161,.T.);
#372=EDGE_CURVE('',#306,#307,#273,.T.);
#373=EDGE_CURVE('',#307,#308,#23,.T.);
#374=EDGE_CURVE('',#308,#309,#274,.T.);
#375=EDGE_CURVE('',#309,#306,#24,.T.);
#376=EDGE_CURVE('',#310,#311,#275,.T.);
#377=EDGE_CURVE('',#311,#312,#25,.T.);
#378=EDGE_CURVE('',#312,#313,#276,.T.);
#379=EDGE_CURVE('',#313,#310,#26,.T.);
#380=EDGE_CURVE('',#314,#315,#162,.T.);
#381=EDGE_CURVE('',#315,#316,#27,.T.);
#382=EDGE_CURVE('',#316,#317,#163,.T.);
#383=EDGE_CURVE('',#317,#314,#28,.T.);
#384=EDGE_CURVE('',#318,#312,#164,.T.);
#385=EDGE_CURVE('',#311,#316,#165,.T.);
#386=EDGE_CURVE('',#315,#318,#29,.T.);
#387=EDGE_CURVE('',#317,#306,#166,.T.);
#388=EDGE_CURVE('',#309,#319,#167,.T.);
#389=EDGE_CURVE('',#319,#314,#30,.T.);
#390=EDGE_CURVE('',#310,#307,#168,.T.);
#391=EDGE_CURVE('',#306,#311,#169,.T.);
#392=EDGE_CURVE('',#320,#313,#170,.T.);
#393=EDGE_CURVE('',#321,#320,#277,.T.);
#394=EDGE_CURVE('',#308,#321,#171,.T.);
#395=EDGE_CURVE('',#322,#323,#278,.T.);
#396=EDGE_CURVE('',#323,#324,#172,.T.);
#397=EDGE_CURVE('',#324,#325,#173,.T.);
#398=EDGE_CURVE('',#325,#322,#174,.T.);
#399=EDGE_CURVE('',#312,#301,#175,.T.);
#400=EDGE_CURVE('',#320,#301,#18,.T.);
#401=EDGE_CURVE('',#318,#303,#176,.T.);
#402=EDGE_CURVE('',#304,#319,#177,.T.);
#403=EDGE_CURVE('',#321,#305,#19,.T.);
#404=EDGE_CURVE('',#305,#309,#178,.T.);
#405=EDGE_CURVE('',#326,#327,#279,.T.);
#406=EDGE_CURVE('',#326,#328,#179,.T.);
#407=EDGE_CURVE('',#328,#329,#180,.T.);
#408=EDGE_CURVE('',#329,#327,#181,.T.);
#409=EDGE_CURVE('',#330,#326,#182,.T.);
#410=EDGE_CURVE('',#331,#330,#183,.T.);
#411=EDGE_CURVE('',#332,#331,#184,.T.);
#412=EDGE_CURVE('',#333,#332,#185,.T.);
#413=EDGE_CURVE('',#322,#333,#186,.T.);
#414=EDGE_CURVE('',#325,#328,#187,.T.);
#415=EDGE_CURVE('',#334,#331,#15,.T.);
#416=EDGE_CURVE('',#335,#334,#188,.T.);
#417=EDGE_CURVE('',#332,#335,#16,.T.);
#418=EDGE_CURVE('',#327,#336,#189,.T.);
#419=EDGE_CURVE('',#324,#329,#190,.T.);
#420=EDGE_CURVE('',#337,#323,#191,.T.);
#421=EDGE_CURVE('',#335,#337,#192,.T.);
#422=EDGE_CURVE('',#336,#334,#193,.T.);
#423=EDGE_CURVE('',#338,#330,#280,.T.);
#424=EDGE_CURVE('',#338,#339,#194,.T.);
#425=EDGE_CURVE('',#339,#339,#281,.T.);
#426=EDGE_CURVE('',#336,#338,#282,.T.);
#427=EDGE_CURVE('',#333,#340,#283,.T.);
#428=EDGE_CURVE('',#340,#337,#284,.T.);
#429=EDGE_CURVE('',#339,#340,#195,.T.);
#430=EDGE_CURVE('',#341,#341,#285,.T.);
#431=EDGE_CURVE('',#341,#342,#196,.T.);
#432=EDGE_CURVE('',#342,#342,#286,.T.);
#433=EDGE_CURVE('',#343,#343,#287,.T.);
#434=EDGE_CURVE('',#343,#344,#197,.T.);
#435=EDGE_CURVE('',#344,#344,#288,.T.);
#436=EDGE_CURVE('',#345,#346,#198,.T.);
#437=EDGE_CURVE('',#347,#345,#199,.T.);
#438=EDGE_CURVE('',#348,#347,#200,.T.);
#439=EDGE_CURVE('',#349,#348,#201,.T.);
#440=EDGE_CURVE('',#350,#349,#202,.T.);
#441=EDGE_CURVE('',#346,#350,#203,.T.);
#442=EDGE_CURVE('',#351,#352,#204,.T.);
#443=EDGE_CURVE('',#353,#351,#205,.T.);
#444=EDGE_CURVE('',#354,#353,#206,.T.);
#445=EDGE_CURVE('',#355,#354,#207,.T.);
#446=EDGE_CURVE('',#356,#355,#208,.T.);
#447=EDGE_CURVE('',#352,#356,#209,.T.);
#448=EDGE_CURVE('',#357,#357,#289,.T.);
#449=EDGE_CURVE('',#345,#352,#290,.T.);
#450=EDGE_CURVE('',#356,#347,#291,.T.);
#451=EDGE_CURVE('',#350,#353,#292,.T.);
#452=EDGE_CURVE('',#346,#351,#293,.T.);
#453=EDGE_CURVE('',#354,#349,#294,.T.);
#454=EDGE_CURVE('',#348,#355,#295,.T.);
#455=EDGE_CURVE('',#357,#338,#210,.T.);
#456=ORIENTED_EDGE('',*,*,#358,.T.);
#457=ORIENTED_EDGE('',*,*,#359,.T.);
#458=ORIENTED_EDGE('',*,*,#360,.T.);
#459=ORIENTED_EDGE('',*,*,#359,.F.);
#460=ORIENTED_EDGE('',*,*,#361,.F.);
#461=ORIENTED_EDGE('',*,*,#358,.F.);
#462=ORIENTED_EDGE('',*,*,#360,.F.);
#463=ORIENTED_EDGE('',*,*,#362,.T.);
#464=ORIENTED_EDGE('',*,*,#363,.F.);
#465=ORIENTED_EDGE('',*,*,#362,.F.);
#466=ORIENTED_EDGE('',*,*,#364,.T.);
#467=ORIENTED_EDGE('',*,*,#365,.T.);
#468=ORIENTED_EDGE('',*,*,#361,.T.);
#469=ORIENTED_EDGE('',*,*,#365,.F.);
#470=ORIENTED_EDGE('',*,*,#366,.F.);
#471=ORIENTED_EDGE('',*,*,#367,.T.);
#472=ORIENTED_EDGE('',*,*,#368,.T.);
#473=ORIENTED_EDGE('',*,*,#369,.T.);
#474=ORIENTED_EDGE('',*,*,#370,.F.);
#475=ORIENTED_EDGE('',*,*,#371,.T.);
#476=ORIENTED_EDGE('',*,*,#364,.F.);
#477=ORIENTED_EDGE('',*,*,#371,.F.);
#478=ORIENTED_EDGE('',*,*,#372,.T.);
#479=ORIENTED_EDGE('',*,*,#373,.T.);
#480=ORIENTED_EDGE('',*,*,#374,.T.);
#481=ORIENTED_EDGE('',*,*,#375,.T.);
#482=ORIENTED_EDGE('',*,*,#376,.T.);
#483=ORIENTED_EDGE('',*,*,#377,.T.);
#484=ORIENTED_EDGE('',*,*,#378,.T.);
#485=ORIENTED_EDGE('',*,*,#379,.T.);
#486=ORIENTED_EDGE('',*,*,#380,.T.);
#487=ORIENTED_EDGE('',*,*,#381,.T.);
#488=ORIENTED_EDGE('',*,*,#382,.T.);
#489=ORIENTED_EDGE('',*,*,#383,.T.);
#490=ORIENTED_EDGE('',*,*,#384,.T.);
#491=ORIENTED_EDGE('',*,*,#377,.F.);
#492=ORIENTED_EDGE('',*,*,#385,.T.);
#493=ORIENTED_EDGE('',*,*,#381,.F.);
#494=ORIENTED_EDGE('',*,*,#386,.T.);
#495=ORIENTED_EDGE('',*,*,#387,.T.);
#496=ORIENTED_EDGE('',*,*,#375,.F.);
#497=ORIENTED_EDGE('',*,*,#388,.T.);
#498=ORIENTED_EDGE('',*,*,#389,.T.);
#499=ORIENTED_EDGE('',*,*,#383,.F.);
#500=ORIENTED_EDGE('',*,*,#376,.F.);
#501=ORIENTED_EDGE('',*,*,#390,.T.);
#502=ORIENTED_EDGE('',*,*,#372,.F.);
#503=ORIENTED_EDGE('',*,*,#391,.T.);
#504=ORIENTED_EDGE('',*,*,#379,.F.);
#505=ORIENTED_EDGE('',*,*,#392,.F.);
#506=ORIENTED_EDGE('',*,*,#393,.F.);
#507=ORIENTED_EDGE('',*,*,#394,.F.);
#508=ORIENTED_EDGE('',*,*,#373,.F.);
#509=ORIENTED_EDGE('',*,*,#390,.F.);
#510=ORIENTED_EDGE('',*,*,#395,.T.);
#511=ORIENTED_EDGE('',*,*,#396,.T.);
#512=ORIENTED_EDGE('',*,*,#397,.T.);
#513=ORIENTED_EDGE('',*,*,#398,.T.);
#514=ORIENTED_EDGE('',*,*,#378,.F.);
#515=ORIENTED_EDGE('',*,*,#399,.T.);
#516=ORIENTED_EDGE('',*,*,#400,.F.);
#517=ORIENTED_EDGE('',*,*,#392,.T.);
#518=ORIENTED_EDGE('',*,*,#384,.F.);
#519=ORIENTED_EDGE('',*,*,#401,.T.);
#520=ORIENTED_EDGE('',*,*,#367,.F.);
#521=ORIENTED_EDGE('',*,*,#399,.F.);
#522=ORIENTED_EDGE('',*,*,#386,.F.);
#523=ORIENTED_EDGE('',*,*,#380,.F.);
#524=ORIENTED_EDGE('',*,*,#389,.F.);
#525=ORIENTED_EDGE('',*,*,#402,.F.);
#526=ORIENTED_EDGE('',*,*,#368,.F.);
#527=ORIENTED_EDGE('',*,*,#401,.F.);
#528=ORIENTED_EDGE('',*,*,#374,.F.);
#529=ORIENTED_EDGE('',*,*,#394,.T.);
#530=ORIENTED_EDGE('',*,*,#403,.T.);
#531=ORIENTED_EDGE('',*,*,#404,.T.);
#532=ORIENTED_EDGE('',*,*,#393,.T.);
#533=ORIENTED_EDGE('',*,*,#400,.T.);
#534=ORIENTED_EDGE('',*,*,#366,.T.);
#535=ORIENTED_EDGE('',*,*,#370,.T.);
#536=ORIENTED_EDGE('',*,*,#403,.F.);
#537=ORIENTED_EDGE('',*,*,#385,.F.);
#538=ORIENTED_EDGE('',*,*,#391,.F.);
#539=ORIENTED_EDGE('',*,*,#387,.F.);
#540=ORIENTED_EDGE('',*,*,#382,.F.);
#541=ORIENTED_EDGE('',*,*,#388,.F.);
#542=ORIENTED_EDGE('',*,*,#404,.F.);
#543=ORIENTED_EDGE('',*,*,#369,.F.);
#544=ORIENTED_EDGE('',*,*,#402,.T.);
#545=ORIENTED_EDGE('',*,*,#405,.F.);
#546=ORIENTED_EDGE('',*,*,#406,.T.);
#547=ORIENTED_EDGE('',*,*,#407,.T.);
#548=ORIENTED_EDGE('',*,*,#408,.T.);
#549=ORIENTED_EDGE('',*,*,#409,.F.);
#550=ORIENTED_EDGE('',*,*,#410,.F.);
#551=ORIENTED_EDGE('',*,*,#411,.F.);
#552=ORIENTED_EDGE('',*,*,#412,.F.);
#553=ORIENTED_EDGE('',*,*,#413,.F.);
#554=ORIENTED_EDGE('',*,*,#398,.F.);
#555=ORIENTED_EDGE('',*,*,#414,.T.);
#556=ORIENTED_EDGE('',*,*,#406,.F.);
#557=ORIENTED_EDGE('',*,*,#415,.F.);
#558=ORIENTED_EDGE('',*,*,#416,.F.);
#559=ORIENTED_EDGE('',*,*,#417,.F.);
#560=ORIENTED_EDGE('',*,*,#411,.T.);
#561=ORIENTED_EDGE('',*,*,#418,.F.);
#562=ORIENTED_EDGE('',*,*,#408,.F.);
#563=ORIENTED_EDGE('',*,*,#419,.F.);
#564=ORIENTED_EDGE('',*,*,#396,.F.);
#565=ORIENTED_EDGE('',*,*,#420,.F.);
#566=ORIENTED_EDGE('',*,*,#421,.F.);
#567=ORIENTED_EDGE('',*,*,#416,.T.);
#568=ORIENTED_EDGE('',*,*,#422,.F.);
#569=ORIENTED_EDGE('',*,*,#397,.F.);
#570=ORIENTED_EDGE('',*,*,#419,.T.);
#571=ORIENTED_EDGE('',*,*,#407,.F.);
#572=ORIENTED_EDGE('',*,*,#414,.F.);
#573=ORIENTED_EDGE('',*,*,#422,.T.);
#574=ORIENTED_EDGE('',*,*,#415,.T.);
#575=ORIENTED_EDGE('',*,*,#410,.T.);
#576=ORIENTED_EDGE('',*,*,#423,.F.);
#577=ORIENTED_EDGE('',*,*,#424,.T.);
#578=ORIENTED_EDGE('',*,*,#425,.T.);
#579=ORIENTED_EDGE('',*,*,#424,.F.);
#580=ORIENTED_EDGE('',*,*,#426,.F.);
#581=ORIENTED_EDGE('',*,*,#420,.T.);
#582=ORIENTED_EDGE('',*,*,#395,.F.);
#583=ORIENTED_EDGE('',*,*,#413,.T.);
#584=ORIENTED_EDGE('',*,*,#427,.T.);
#585=ORIENTED_EDGE('',*,*,#428,.T.);
#586=ORIENTED_EDGE('',*,*,#425,.F.);
#587=ORIENTED_EDGE('',*,*,#429,.T.);
#588=ORIENTED_EDGE('',*,*,#427,.F.);
#589=ORIENTED_EDGE('',*,*,#412,.T.);
#590=ORIENTED_EDGE('',*,*,#417,.T.);
#591=ORIENTED_EDGE('',*,*,#421,.T.);
#592=ORIENTED_EDGE('',*,*,#428,.F.);
#593=ORIENTED_EDGE('',*,*,#429,.F.);
#594=ORIENTED_EDGE('',*,*,#430,.F.);
#595=ORIENTED_EDGE('',*,*,#431,.T.);
#596=ORIENTED_EDGE('',*,*,#432,.F.);
#597=ORIENTED_EDGE('',*,*,#431,.F.);
#598=ORIENTED_EDGE('',*,*,#430,.T.);
#599=ORIENTED_EDGE('',*,*,#433,.F.);
#600=ORIENTED_EDGE('',*,*,#434,.T.);
#601=ORIENTED_EDGE('',*,*,#435,.F.);
#602=ORIENTED_EDGE('',*,*,#434,.F.);
#603=ORIENTED_EDGE('',*,*,#433,.T.);
#604=ORIENTED_EDGE('',*,*,#436,.F.);
#605=ORIENTED_EDGE('',*,*,#437,.F.);
#606=ORIENTED_EDGE('',*,*,#438,.F.);
#607=ORIENTED_EDGE('',*,*,#439,.F.);
#608=ORIENTED_EDGE('',*,*,#440,.F.);
#609=ORIENTED_EDGE('',*,*,#441,.F.);
#610=ORIENTED_EDGE('',*,*,#442,.F.);
#611=ORIENTED_EDGE('',*,*,#443,.F.);
#612=ORIENTED_EDGE('',*,*,#444,.F.);
#613=ORIENTED_EDGE('',*,*,#445,.F.);
#614=ORIENTED_EDGE('',*,*,#446,.F.);
#615=ORIENTED_EDGE('',*,*,#447,.F.);
#616=ORIENTED_EDGE('',*,*,#448,.T.);
#617=ORIENTED_EDGE('',*,*,#432,.T.);
#618=ORIENTED_EDGE('',*,*,#435,.T.);
#619=ORIENTED_EDGE('',*,*,#449,.T.);
#620=ORIENTED_EDGE('',*,*,#447,.T.);
#621=ORIENTED_EDGE('',*,*,#450,.T.);
#622=ORIENTED_EDGE('',*,*,#437,.T.);
#623=ORIENTED_EDGE('',*,*,#363,.T.);
#624=ORIENTED_EDGE('',*,*,#441,.T.);
#625=ORIENTED_EDGE('',*,*,#451,.T.);
#626=ORIENTED_EDGE('',*,*,#443,.T.);
#627=ORIENTED_EDGE('',*,*,#452,.F.);
#628=ORIENTED_EDGE('',*,*,#440,.T.);
#629=ORIENTED_EDGE('',*,*,#453,.F.);
#630=ORIENTED_EDGE('',*,*,#444,.T.);
#631=ORIENTED_EDGE('',*,*,#451,.F.);
#632=ORIENTED_EDGE('',*,*,#439,.T.);
#633=ORIENTED_EDGE('',*,*,#454,.T.);
#634=ORIENTED_EDGE('',*,*,#445,.T.);
#635=ORIENTED_EDGE('',*,*,#453,.T.);
#636=ORIENTED_EDGE('',*,*,#438,.T.);
#637=ORIENTED_EDGE('',*,*,#450,.F.);
#638=ORIENTED_EDGE('',*,*,#446,.T.);
#639=ORIENTED_EDGE('',*,*,#454,.F.);
#640=ORIENTED_EDGE('',*,*,#436,.T.);
#641=ORIENTED_EDGE('',*,*,#452,.T.);
#642=ORIENTED_EDGE('',*,*,#442,.T.);
#643=ORIENTED_EDGE('',*,*,#449,.F.);
#644=ORIENTED_EDGE('',*,*,#448,.F.);
#645=ORIENTED_EDGE('',*,*,#455,.T.);
#646=ORIENTED_EDGE('',*,*,#423,.T.);
#647=ORIENTED_EDGE('',*,*,#409,.T.);
#648=ORIENTED_EDGE('',*,*,#405,.T.);
#649=ORIENTED_EDGE('',*,*,#418,.T.);
#650=ORIENTED_EDGE('',*,*,#426,.T.);
#651=ORIENTED_EDGE('',*,*,#455,.F.);
#652=CONICAL_SURFACE('',#710,17.4,0.785398163397449);
#653=CONICAL_SURFACE('',#717,31.5,0.785398163397449);
#654=CONICAL_SURFACE('',#755,30.2,0.643501108793284);
#655=CONICAL_SURFACE('',#762,30.2,0.643501108793282);
#656=ADVANCED_FACE('',(#70),#652,.F.);
#657=ADVANCED_FACE('',(#71,#46),#52,.F.);
#658=ADVANCED_FACE('',(#72),#31,.F.);
#659=ADVANCED_FACE('',(#73),#653,.T.);
#660=ADVANCED_FACE('',(#74),#32,.T.);
#661=ADVANCED_FACE('',(#75),#20,.F.);
#662=ADVANCED_FACE('',(#76),#21,.F.);
#663=ADVANCED_FACE('',(#77),#33,.T.);
#664=ADVANCED_FACE('',(#78),#34,.T.);
#665=ADVANCED_FACE('',(#79),#35,.T.);
#666=ADVANCED_FACE('',(#80),#36,.T.);
#667=ADVANCED_FACE('',(#81,#47),#53,.T.);
#668=ADVANCED_FACE('',(#82),#37,.T.);
#669=ADVANCED_FACE('',(#83),#54,.T.);
#670=ADVANCED_FACE('',(#84),#55,.T.);
#671=ADVANCED_FACE('',(#85),#38,.T.);
#672=ADVANCED_FACE('',(#86),#17,.T.);
#673=ADVANCED_FACE('',(#87),#56,.T.);
#674=ADVANCED_FACE('',(#88),#57,.T.);
#675=ADVANCED_FACE('',(#89),#58,.T.);
#676=ADVANCED_FACE('',(#90),#59,.T.);
#677=ADVANCED_FACE('',(#91),#60,.T.);
#678=ADVANCED_FACE('',(#92),#61,.T.);
#679=ADVANCED_FACE('',(#93),#62,.T.);
#680=ADVANCED_FACE('',(#94),#654,.F.);
#681=ADVANCED_FACE('',(#95),#39,.F.);
#682=ADVANCED_FACE('',(#96),#655,.F.);
#683=ADVANCED_FACE('',(#97),#40,.T.);
#684=ADVANCED_FACE('',(#98),#63,.T.);
#685=ADVANCED_FACE('',(#99),#41,.T.);
#686=ADVANCED_FACE('',(#100),#64,.T.);
#687=ADVANCED_FACE('',(#101),#65,.F.);
#688=ADVANCED_FACE('',(#102),#66,.F.);
#689=ADVANCED_FACE('',(#103,#48,#49,#50,#51),#67,.T.);
#690=ADVANCED_FACE('',(#104),#68,.T.);
#691=ADVANCED_FACE('',(#105),#42,.F.);
#692=ADVANCED_FACE('',(#106),#69,.T.);
#693=ADVANCED_FACE('',(#107),#43,.T.);
#694=ADVANCED_FACE('',(#108),#44,.F.);
#695=ADVANCED_FACE('',(#109),#45,.F.);
#696=CLOSED_SHELL('',(#656,#657,#658,#659,#660,#661,#662,#663,#664,#665,
#666,#667,#668,#669,#670,#671,#672,#673,#674,#675,#676,#677,#678,#679,#680,
#681,#682,#683,#684,#685,#686,#687,#688,#689,#690,#691,#692,#693,#694,#695));
#697=DERIVED_UNIT_ELEMENT(#699,1.);
#698=DERIVED_UNIT_ELEMENT(#1282,-3.);
#699=(
MASS_UNIT()
NAMED_UNIT(*)
SI_UNIT(.KILO.,.GRAM.)
);
#700=DERIVED_UNIT((#697,#698));
#701=MEASURE_REPRESENTATION_ITEM('density measure',
POSITIVE_RATIO_MEASURE(7850.),#700);
#702=PROPERTY_DEFINITION_REPRESENTATION(#707,#704);
#703=PROPERTY_DEFINITION_REPRESENTATION(#708,#705);
#704=REPRESENTATION('material name',(#706),#1279);
#705=REPRESENTATION('density',(#701),#1279);
#706=DESCRIPTIVE_REPRESENTATION_ITEM('Stahl','Stahl');
#707=PROPERTY_DEFINITION('material property','material name',#1289);
#708=PROPERTY_DEFINITION('material property','density of part',#1289);
#709=AXIS2_PLACEMENT_3D('',#998,#787,#788);
#710=AXIS2_PLACEMENT_3D('',#999,#789,#790);
#711=AXIS2_PLACEMENT_3D('',#1001,#791,#792);
#712=AXIS2_PLACEMENT_3D('',#1004,#794,#795);
#713=AXIS2_PLACEMENT_3D('',#1005,#796,#797);
#714=AXIS2_PLACEMENT_3D('',#1007,#798,#799);
#715=AXIS2_PLACEMENT_3D('',#1008,#800,#801);
#716=AXIS2_PLACEMENT_3D('',#1011,#803,#804);
#717=AXIS2_PLACEMENT_3D('',#1012,#805,#806);
#718=AXIS2_PLACEMENT_3D('',#1014,#807,#808);
#719=AXIS2_PLACEMENT_3D('',#1016,#810,#811);
#720=AXIS2_PLACEMENT_3D('',#1019,#812,#813);
#721=AXIS2_PLACEMENT_3D('',#1023,#815,#816);
#722=AXIS2_PLACEMENT_3D('',#1026,#818,#819);
#723=AXIS2_PLACEMENT_3D('',#1055,#821,#822);
#724=AXIS2_PLACEMENT_3D('',#1057,#823,#824);
#725=AXIS2_PLACEMENT_3D('',#1059,#825,#826);
#726=AXIS2_PLACEMENT_3D('',#1060,#827,#828);
#727=AXIS2_PLACEMENT_3D('',#1088,#829,#830);
#728=AXIS2_PLACEMENT_3D('',#1090,#831,#832);
#729=AXIS2_PLACEMENT_3D('',#1092,#833,#834);
#730=AXIS2_PLACEMENT_3D('',#1093,#835,#836);
#731=AXIS2_PLACEMENT_3D('',#1094,#837,#838);
#732=AXIS2_PLACEMENT_3D('',#1099,#840,#841);
#733=AXIS2_PLACEMENT_3D('',#1102,#843,#844);
#734=AXIS2_PLACEMENT_3D('',#1103,#845,#846);
#735=AXIS2_PLACEMENT_3D('',#1107,#849,#850);
#736=AXIS2_PLACEMENT_3D('',#1108,#851,#852);
#737=AXIS2_PLACEMENT_3D('',#1112,#855,#856);
#738=AXIS2_PLACEMENT_3D('',#1113,#857,#858);
#739=AXIS2_PLACEMENT_3D('',#1116,#861,#862);
#740=AXIS2_PLACEMENT_3D('',#1120,#864,#865);
#741=AXIS2_PLACEMENT_3D('',#1124,#867,#868);
#742=AXIS2_PLACEMENT_3D('',#1130,#872,#873);
#743=AXIS2_PLACEMENT_3D('',#1146,#875,#876);
#744=AXIS2_PLACEMENT_3D('',#1148,#878,#879);
#745=AXIS2_PLACEMENT_3D('',#1150,#881,#882);
#746=AXIS2_PLACEMENT_3D('',#1166,#884,#885);
#747=AXIS2_PLACEMENT_3D('',#1167,#886,#887);
#748=AXIS2_PLACEMENT_3D('',#1168,#888,#889);
#749=AXIS2_PLACEMENT_3D('',#1169,#890,#891);
#750=AXIS2_PLACEMENT_3D('',#1172,#892,#893);
#751=AXIS2_PLACEMENT_3D('',#1178,#897,#898);
#752=AXIS2_PLACEMENT_3D('',#1189,#905,#906);
#753=AXIS2_PLACEMENT_3D('',#1199,#908,#909);
#754=AXIS2_PLACEMENT_3D('',#1207,#915,#916);
#755=AXIS2_PLACEMENT_3D('',#1208,#917,#918);
#756=AXIS2_PLACEMENT_3D('',#1210,#919,#920);
#757=AXIS2_PLACEMENT_3D('',#1213,#922,#923);
#758=AXIS2_PLACEMENT_3D('',#1214,#924,#925);
#759=AXIS2_PLACEMENT_3D('',#1215,#926,#927);
#760=AXIS2_PLACEMENT_3D('',#1217,#928,#929);
#761=AXIS2_PLACEMENT_3D('',#1218,#930,#931);
#762=AXIS2_PLACEMENT_3D('',#1219,#932,#933);
#763=AXIS2_PLACEMENT_3D('',#1221,#935,#936);
#764=AXIS2_PLACEMENT_3D('',#1223,#937,#938);
#765=AXIS2_PLACEMENT_3D('',#1226,#940,#941);
#766=AXIS2_PLACEMENT_3D('',#1227,#942,#943);
#767=AXIS2_PLACEMENT_3D('',#1228,#944,#945);
#768=AXIS2_PLACEMENT_3D('',#1230,#946,#947);
#769=AXIS2_PLACEMENT_3D('',#1233,#949,#950);
#770=AXIS2_PLACEMENT_3D('',#1234,#951,#952);
#771=AXIS2_PLACEMENT_3D('',#1235,#953,#954);
#772=AXIS2_PLACEMENT_3D('',#1248,#961,#962);
#773=AXIS2_PLACEMENT_3D('',#1261,#969,#970);
#774=AXIS2_PLACEMENT_3D('',#1263,#971,#972);
#775=AXIS2_PLACEMENT_3D('',#1264,#973,#974);
#776=AXIS2_PLACEMENT_3D('',#1265,#975,#976);
#777=AXIS2_PLACEMENT_3D('',#1266,#977,#978);
#778=AXIS2_PLACEMENT_3D('',#1267,#979,#980);
#779=AXIS2_PLACEMENT_3D('',#1268,#981,#982);
#780=AXIS2_PLACEMENT_3D('',#1269,#983,#984);
#781=AXIS2_PLACEMENT_3D('',#1270,#985,#986);
#782=AXIS2_PLACEMENT_3D('',#1271,#987,#988);
#783=AXIS2_PLACEMENT_3D('',#1272,#989,#990);
#784=AXIS2_PLACEMENT_3D('',#1273,#991,#992);
#785=AXIS2_PLACEMENT_3D('',#1274,#993,#994);
#786=AXIS2_PLACEMENT_3D('',#1275,#995,#996);
#787=DIRECTION('axis',(0.,0.,1.));
#788=DIRECTION('refdir',(1.,0.,0.));
#789=DIRECTION('center_axis',(0.,0.,-1.));
#790=DIRECTION('ref_axis',(1.,0.,0.));
#791=DIRECTION('center_axis',(0.,0.,-1.));
#792=DIRECTION('ref_axis',(1.,0.,0.));
#793=DIRECTION('',(0.707106781186548,-8.65956056235494E-17,0.707106781186547));
#794=DIRECTION('center_axis',(0.,0.,1.));
#795=DIRECTION('ref_axis',(1.,0.,0.));
#796=DIRECTION('center_axis',(0.,0.,1.));
#797=DIRECTION('ref_axis',(1.,0.,0.));
#798=DIRECTION('center_axis',(0.,0.,1.));
#799=DIRECTION('ref_axis',(1.,0.,0.));
#800=DIRECTION('center_axis',(0.,0.,1.));
#801=DIRECTION('ref_axis',(1.,0.,0.));
#802=DIRECTION('',(0.,0.,1.));
#803=DIRECTION('center_axis',(0.,0.,-1.));
#804=DIRECTION('ref_axis',(1.,0.,0.));
#805=DIRECTION('center_axis',(0.,0.,1.));
#806=DIRECTION('ref_axis',(1.,0.,0.));
#807=DIRECTION('center_axis',(0.,0.,-1.));
#808=DIRECTION('ref_axis',(1.,0.,0.));
#809=DIRECTION('',(0.707106781186548,8.65956056235494E-17,-0.707106781186547));
#810=DIRECTION('center_axis',(0.,0.,1.));
#811=DIRECTION('ref_axis',(1.,0.,0.));
#812=DIRECTION('center_axis',(0.,0.,1.));
#813=DIRECTION('ref_axis',(-1.83697019872103E-16,1.,0.));
#814=DIRECTION('',(0.,0.,-1.));
#815=DIRECTION('center_axis',(0.,-0.707106781186548,-0.707106781186547));
#816=DIRECTION('ref_axis',(0.,0.707106781186547,-0.707106781186548));
#817=DIRECTION('',(0.,0.,1.));
#818=DIRECTION('center_axis',(0.,0.,1.));
#819=DIRECTION('ref_axis',(-1.83697019872103E-16,1.,0.));
#820=DIRECTION('',(0.,0.,-1.));
#821=DIRECTION('center_axis',(-1.,-1.72408117850589E-14,-6.38038206900037E-29));
#822=DIRECTION('ref_axis',(1.66533453693773E-14,-0.965925826289069,0.258819045102517));
#823=DIRECTION('center_axis',(0.,0.,-1.));
#824=DIRECTION('ref_axis',(-1.28463755863555E-15,-1.,0.));
#825=DIRECTION('center_axis',(-1.11022302462516E-14,-1.,2.05432527401305E-29));
#826=DIRECTION('ref_axis',(1.85037170770859E-15,0.,1.));
#827=DIRECTION('center_axis',(0.,0.206758557005177,0.978391996648141));
#828=DIRECTION('ref_axis',(0.,-0.978391996648141,0.206758557005177));
#829=DIRECTION('center_axis',(1.,-1.72408117850589E-14,-6.38038206900037E-29));
#830=DIRECTION('ref_axis',(0.,-3.70074341541719E-15,1.));
#831=DIRECTION('center_axis',(0.,0.206758557005177,0.978391996648141));
#832=DIRECTION('ref_axis',(0.,-0.978391996648141,0.206758557005177));
#833=DIRECTION('center_axis',(1.11022302462516E-14,-1.,2.05432527401305E-29));
#834=DIRECTION('ref_axis',(1.,1.11022302462516E-14,-3.70074341541719E-15));
#835=DIRECTION('center_axis',(0.,0.,-1.));
#836=DIRECTION('ref_axis',(1.28463755863555E-15,-1.,0.));
#837=DIRECTION('center_axis',(1.,0.,0.));
#838=DIRECTION('ref_axis',(0.,-0.965925826289068,-0.25881904510252));
#839=DIRECTION('',(1.,0.,0.));
#840=DIRECTION('center_axis',(-0.707106781186549,-0.18301270189222,-0.683012701892218));
#841=DIRECTION('ref_axis',(-0.707106781186546,0.183012701892221,0.68301270189222));
#842=DIRECTION('',(-1.,0.,0.));
#843=DIRECTION('center_axis',(0.707106781186549,-0.18301270189222,-0.683012701892218));
#844=DIRECTION('ref_axis',(-0.707106781186546,-0.183012701892221,-0.68301270189222));
#845=DIRECTION('center_axis',(0.,-0.258819045102521,-0.965925826289068));
#846=DIRECTION('ref_axis',(0.707106781186547,-0.683012701892219,0.18301270189222));
#847=DIRECTION('',(0.,0.258819045102521,0.965925826289068));
#848=DIRECTION('',(0.,-0.258819045102521,-0.965925826289068));
#849=DIRECTION('center_axis',(0.,0.707106781186548,0.707106781186547));
#850=DIRECTION('ref_axis',(4.00617226329909E-16,-0.707106781186547,0.707106781186548));
#851=DIRECTION('center_axis',(0.,0.258819045102521,0.965925826289068));
#852=DIRECTION('ref_axis',(-0.707106781186547,-0.683012701892219,0.18301270189222));
#853=DIRECTION('',(0.,0.258819045102521,0.965925826289068));
#854=DIRECTION('',(0.,-0.258819045102521,-0.965925826289068));
#855=DIRECTION('center_axis',(0.,0.707106781186548,0.707106781186547));
#856=DIRECTION('ref_axis',(-4.00617226329909E-16,-0.707106781186547,0.707106781186548));
#857=DIRECTION('center_axis',(1.,0.,0.));
#858=DIRECTION('ref_axis',(0.,-0.608761429008719,0.793353340291237));
#859=DIRECTION('',(-1.,0.,0.));
#860=DIRECTION('',(1.,0.,0.));
#861=DIRECTION('center_axis',(0.,0.,1.));
#862=DIRECTION('ref_axis',(1.,0.,0.));
#863=DIRECTION('',(0.,-1.,0.));
#864=DIRECTION('center_axis',(0.,0.,-1.));
#865=DIRECTION('ref_axis',(-1.83697019872103E-16,1.,0.));
#866=DIRECTION('',(0.,1.,0.));
#867=DIRECTION('center_axis',(0.,0.,-1.));
#868=DIRECTION('ref_axis',(1.,0.,0.));
#869=DIRECTION('',(0.,-1.,0.));
#870=DIRECTION('',(1.,0.,0.));
#871=DIRECTION('',(0.,1.,0.));
#872=DIRECTION('center_axis',(0.,-1.,0.));
#873=DIRECTION('ref_axis',(0.707106781186547,0.,0.707106781186547));
#874=DIRECTION('',(0.,1.,0.));
#875=DIRECTION('center_axis',(1.,0.,0.));
#876=DIRECTION('ref_axis',(0.,0.,-1.));
#877=DIRECTION('',(0.,0.707106781186547,-0.707106781186548));
#878=DIRECTION('center_axis',(0.,-0.707106781186548,-0.707106781186547));
#879=DIRECTION('ref_axis',(0.,0.707106781186547,-0.707106781186548));
#880=DIRECTION('',(0.,-0.707106781186547,0.707106781186548));
#881=DIRECTION('center_axis',(0.,1.,0.));
#882=DIRECTION('ref_axis',(-0.707106781186547,0.,0.707106781186547));
#883=DIRECTION('',(0.,-1.,0.));
#884=DIRECTION('center_axis',(0.,0.,1.));
#885=DIRECTION('ref_axis',(-1.83697019872103E-16,1.,0.));
#886=DIRECTION('center_axis',(0.,-0.965925826289068,0.258819045102521));
#887=DIRECTION('ref_axis',(0.,-0.258819045102521,-0.965925826289068));
#888=DIRECTION('center_axis',(-1.,0.,0.));
#889=DIRECTION('ref_axis',(0.,0.,1.));
#890=DIRECTION('center_axis',(0.,0.,-1.));
#891=DIRECTION('ref_axis',(-1.,0.,0.));
#892=DIRECTION('center_axis',(0.,0.,1.));
#893=DIRECTION('ref_axis',(1.,0.,0.));
#894=DIRECTION('',(0.,-1.,0.));
#895=DIRECTION('',(-1.,0.,0.));
#896=DIRECTION('',(0.,1.,0.));
#897=DIRECTION('center_axis',(1.,0.,0.));
#898=DIRECTION('ref_axis',(0.,-1.,0.));
#899=DIRECTION('',(0.,0.,-1.));
#900=DIRECTION('',(-3.32919219185638E-16,-0.60047268922863,-0.799645264783414));
#901=DIRECTION('',(0.,0.,-1.));
#902=DIRECTION('',(0.,0.600472689228631,-0.799645264783414));
#903=DIRECTION('',(0.,0.,-1.));
#904=DIRECTION('',(0.,0.,-1.));
#905=DIRECTION('center_axis',(0.,1.,0.));
#906=DIRECTION('ref_axis',(1.,0.,0.));
#907=DIRECTION('',(0.,0.,-1.));
#908=DIRECTION('center_axis',(-1.,0.,0.));
#909=DIRECTION('ref_axis',(0.,1.,0.));
#910=DIRECTION('',(0.,0.,1.));
#911=DIRECTION('',(0.,0.,-1.));
#912=DIRECTION('',(0.,0.,1.));
#913=DIRECTION('',(0.,-0.600472689228631,0.799645264783414));
#914=DIRECTION('',(0.,0.60047268922863,0.799645264783414));
#915=DIRECTION('center_axis',(0.,-1.,0.));
#916=DIRECTION('ref_axis',(-1.,0.,0.));
#917=DIRECTION('center_axis',(0.,0.,1.));
#918=DIRECTION('ref_axis',(1.,0.,0.));
#919=DIRECTION('center_axis',(0.,0.,1.));
#920=DIRECTION('ref_axis',(1.,0.,0.));
#921=DIRECTION('',(-0.6,-7.34788079488412E-17,0.8));
#922=DIRECTION('center_axis',(0.,0.,1.));
#923=DIRECTION('ref_axis',(1.,0.,0.));
#924=DIRECTION('center_axis',(0.,0.,1.));
#925=DIRECTION('ref_axis',(1.,0.,0.));
#926=DIRECTION('center_axis',(0.,0.,1.));
#927=DIRECTION('ref_axis',(-1.83697019872103E-16,-1.,0.));
#928=DIRECTION('center_axis',(0.,0.,-1.));
#929=DIRECTION('ref_axis',(1.,0.,0.));
#930=DIRECTION('center_axis',(0.,0.,-1.));
#931=DIRECTION('ref_axis',(1.,0.,0.));
#932=DIRECTION('center_axis',(0.,0.,-1.));
#933=DIRECTION('ref_axis',(1.,0.,0.));
#934=DIRECTION('',(0.599999999999998,7.34788079488409E-17,0.800000000000002));
#935=DIRECTION('center_axis',(0.,0.,1.));
#936=DIRECTION('ref_axis',(1.,0.,0.));
#937=DIRECTION('center_axis',(0.,0.,1.));
#938=DIRECTION('ref_axis',(1.,0.,0.));
#939=DIRECTION('',(0.,0.,-1.));
#940=DIRECTION('center_axis',(0.,0.,-1.));
#941=DIRECTION('ref_axis',(1.,0.,0.));
#942=DIRECTION('center_axis',(0.,0.,1.));
#943=DIRECTION('ref_axis',(1.,0.,0.));
#944=DIRECTION('center_axis',(0.,0.,1.));
#945=DIRECTION('ref_axis',(1.,0.,0.));
#946=DIRECTION('center_axis',(0.,0.,1.));
#947=DIRECTION('ref_axis',(1.,0.,0.));
#948=DIRECTION('',(0.,0.,-1.));
#949=DIRECTION('center_axis',(0.,0.,-1.));
#950=DIRECTION('ref_axis',(1.,0.,0.));
#951=DIRECTION('center_axis',(0.,0.,1.));
#952=DIRECTION('ref_axis',(1.,0.,0.));
#953=DIRECTION('center_axis',(1.,0.,0.));
#954=DIRECTION('ref_axis',(0.,1.,0.));
#955=DIRECTION('',(0.,0.,1.));
#956=DIRECTION('',(0.,1.,0.));
#957=DIRECTION('',(0.,0.,-1.));
#958=DIRECTION('',(0.,-1.,0.));
#959=DIRECTION('',(0.,0.,1.));
#960=DIRECTION('',(0.,-1.,0.));
#961=DIRECTION('center_axis',(-1.,0.,0.));
#962=DIRECTION('ref_axis',(0.,-1.,0.));
#963=DIRECTION('',(0.,0.,-1.));
#964=DIRECTION('',(0.,1.,0.));
#965=DIRECTION('',(0.,0.,-1.));
#966=DIRECTION('',(0.,1.,0.));
#967=DIRECTION('',(0.,0.,1.));
#968=DIRECTION('',(0.,-1.,0.));
#969=DIRECTION('center_axis',(0.,0.,1.));
#970=DIRECTION('ref_axis',(1.,0.,0.));
#971=DIRECTION('center_axis',(0.,0.,1.));
#972=DIRECTION('ref_axis',(1.,0.,0.));
#973=DIRECTION('center_axis',(0.,0.,1.));
#974=DIRECTION('ref_axis',(1.,0.,0.));
#975=DIRECTION('center_axis',(0.,0.,-1.));
#976=DIRECTION('ref_axis',(1.,0.,0.));
#977=DIRECTION('center_axis',(0.,0.,1.));
#978=DIRECTION('ref_axis',(1.,0.,0.));
#979=DIRECTION('center_axis',(0.,0.,1.));
#980=DIRECTION('ref_axis',(1.,0.,0.));
#981=DIRECTION('center_axis',(0.,0.,1.));
#982=DIRECTION('ref_axis',(1.,0.,0.));
#983=DIRECTION('center_axis',(0.,0.,1.));
#984=DIRECTION('ref_axis',(6.12323399573677E-17,1.,0.));
#985=DIRECTION('center_axis',(0.,0.,-1.));
#986=DIRECTION('ref_axis',(1.,0.,0.));
#987=DIRECTION('center_axis',(0.,0.,1.));
#988=DIRECTION('ref_axis',(1.,0.,0.));
#989=DIRECTION('center_axis',(0.,0.,1.));
#990=DIRECTION('ref_axis',(1.,0.,0.));
#991=DIRECTION('center_axis',(0.,0.,1.));
#992=DIRECTION('ref_axis',(6.12323399573676E-17,1.,0.));
#993=DIRECTION('center_axis',(0.,0.,1.));
#994=DIRECTION('ref_axis',(6.12323399573677E-17,1.,0.));
#995=DIRECTION('center_axis',(0.,0.,1.));
#996=DIRECTION('ref_axis',(1.,0.,0.));
#997=DIRECTION('',(0.,0.,1.));
#998=CARTESIAN_POINT('',(0.,0.,0.));
#999=CARTESIAN_POINT('Origin',(0.,0.,0.4));
#1000=CARTESIAN_POINT('',(-17.8,2.17987130248229E-15,0.));
#1001=CARTESIAN_POINT('Origin',(0.,0.,0.));
#1002=CARTESIAN_POINT('',(-17.,-2.0818995585505E-15,0.8));
#1003=CARTESIAN_POINT('',(-17.4,2.13088543051639E-15,0.4));
#1004=CARTESIAN_POINT('Origin',(0.,0.,0.8));
#1005=CARTESIAN_POINT('Origin',(0.,0.,0.));
#1006=CARTESIAN_POINT('',(-31.,-3.7964050773568E-15,0.));
#1007=CARTESIAN_POINT('Origin',(0.,0.,0.));
#1008=CARTESIAN_POINT('Origin',(0.,0.,0.));
#1009=CARTESIAN_POINT('',(-17.,-2.0818995585505E-15,1.7));
#1010=CARTESIAN_POINT('',(-17.,-2.0818995585505E-15,0.));
#1011=CARTESIAN_POINT('Origin',(0.,0.,1.7));
#1012=CARTESIAN_POINT('Origin',(0.,0.,0.5));
#1013=CARTESIAN_POINT('',(-32.,3.91886975727153E-15,1.));
#1014=CARTESIAN_POINT('Origin',(0.,0.,1.));
#1015=CARTESIAN_POINT('',(-31.5,-3.85763741731416E-15,0.5));
#1016=CARTESIAN_POINT('Origin',(0.,0.,0.));
#1017=CARTESIAN_POINT('',(17.,-27.1108834234519,32.8));
#1018=CARTESIAN_POINT('',(-32.,-3.91886975727153E-15,32.8));
#1019=CARTESIAN_POINT('Origin',(0.,0.,32.8));
#1020=CARTESIAN_POINT('',(17.,-27.1108834234519,3.11088342345192));
#1021=CARTESIAN_POINT('',(17.,-27.1108834234519,0.));
#1022=CARTESIAN_POINT('',(-17.,-27.1108834234519,3.11088342345192));
#1023=CARTESIAN_POINT('Origin',(0.,0.,-24.));
#1024=CARTESIAN_POINT('',(-17.,-27.1108834234519,32.8));
#1025=CARTESIAN_POINT('',(-17.,-27.1108834234519,0.));
#1026=CARTESIAN_POINT('Origin',(0.,0.,32.8));
#1027=CARTESIAN_POINT('',(-32.,-3.91886975727153E-15,0.));
#1028=CARTESIAN_POINT('Ctrl Pts',(-17.,-31.8221612353695,32.8));
#1029=CARTESIAN_POINT('Ctrl Pts',(-17.,-32.1519597631254,32.8696946294888));
#1030=CARTESIAN_POINT('Ctrl Pts',(-16.7258190811245,-32.9227877384938,33.0325897476341));
#1031=CARTESIAN_POINT('Ctrl Pts',(-15.9487989505128,-33.2918550810394,33.110582854123));
#1032=CARTESIAN_POINT('Ctrl Pts',(-15.5,-33.2918550810394,33.110582854123));
#1033=CARTESIAN_POINT('Ctrl Pts',(-17.,-31.8221612353695,33.1590391604103));
#1034=CARTESIAN_POINT('Ctrl Pts',(-16.9785100273549,-32.1527910143324,33.2153936296815));
#1035=CARTESIAN_POINT('Ctrl Pts',(-16.66392349533,-32.8873284282695,33.3422862183378));
#1036=CARTESIAN_POINT('Ctrl Pts',(-15.9253271592611,-33.2144166038296,33.3995871855309));
#1037=CARTESIAN_POINT('Ctrl Pts',(-15.5,-33.2144166038296,33.3995871855309));
#1038=CARTESIAN_POINT('Ctrl Pts',(-16.6985095662586,-31.8221612353695,33.7804774332964));
#1039=CARTESIAN_POINT('Ctrl Pts',(-16.6653726686789,-32.0863986101077,33.7974522844608));
#1040=CARTESIAN_POINT('Ctrl Pts',(-16.3845199847702,-32.6475362783579,33.8340599244296));
#1041=CARTESIAN_POINT('Ctrl Pts',(-15.8214671234565,-32.8812062804052,33.8495030722136));
#1042=CARTESIAN_POINT('Ctrl Pts',(-15.5,-32.8812062804052,33.8495030722136));
#1043=CARTESIAN_POINT('Ctrl Pts',(-16.0692793703077,-31.8221612353695,34.));
#1044=CARTESIAN_POINT('Ctrl Pts',(-16.0594092606072,-31.9501036490378,33.9998202881782));
#1045=CARTESIAN_POINT('Ctrl Pts',(-15.9368914182053,-32.2323978581684,33.9998151250054));
#1046=CARTESIAN_POINT('Ctrl Pts',(-15.659191669094,-32.3571435647489,34.));
#1047=CARTESIAN_POINT('Ctrl Pts',(-15.5,-32.3571435647489,34.));
#1048=CARTESIAN_POINT('Ctrl Pts',(-15.8,-31.8221612353695,34.));
#1049=CARTESIAN_POINT('Ctrl Pts',(-15.8,-31.8918558648583,34.));
#1050=CARTESIAN_POINT('Ctrl Pts',(-15.7451638162249,-32.0547509830036,34.));
#1051=CARTESIAN_POINT('Ctrl Pts',(-15.5897597901026,-32.1327440894925,34.));
#1052=CARTESIAN_POINT('Ctrl Pts',(-15.5,-32.1327440894925,34.));
#1053=CARTESIAN_POINT('',(-15.5,-33.2918550810394,33.110582854123));
#1054=CARTESIAN_POINT('',(-15.5,-32.1327440894925,34.));
#1055=CARTESIAN_POINT('Origin',(-15.5,-32.1327440894925,32.8));
#1056=CARTESIAN_POINT('',(-15.8,-31.8221612353695,34.));
#1057=CARTESIAN_POINT('Origin',(-15.5,-31.8221612353695,34.));
#1058=CARTESIAN_POINT('',(-17.,-31.8221612353695,32.8));
#1059=CARTESIAN_POINT('Origin',(-15.8,-31.8221612353695,32.8));
#1060=CARTESIAN_POINT('Origin',(-15.5,-31.8221612353695,32.8));
#1061=CARTESIAN_POINT('Ctrl Pts',(15.8,-31.8221612353695,34.));
#1062=CARTESIAN_POINT('Ctrl Pts',(15.8,-31.8918558648583,34.));
#1063=CARTESIAN_POINT('Ctrl Pts',(15.7451638162249,-32.0547509830036,34.));
#1064=CARTESIAN_POINT('Ctrl Pts',(15.5897597901026,-32.1327440894925,34.));
#1065=CARTESIAN_POINT('Ctrl Pts',(15.5,-32.1327440894925,34.));
#1066=CARTESIAN_POINT('Ctrl Pts',(16.1590391604103,-31.8221612353695,34.));
#1067=CARTESIAN_POINT('Ctrl Pts',(16.145476267103,-31.9700159590019,33.999452961461));
#1068=CARTESIAN_POINT('Ctrl Pts',(16.0003394783037,-32.2920237147988,33.9994113995403));
#1069=CARTESIAN_POINT('Ctrl Pts',(15.6826314629652,-32.4319433898344,34.));
#1070=CARTESIAN_POINT('Ctrl Pts',(15.5,-32.4319433898344,34.));
#1071=CARTESIAN_POINT('Ctrl Pts',(16.7804774332964,-31.8221612353695,33.6985095662586));
#1072=CARTESIAN_POINT('Ctrl Pts',(16.7453247129779,-32.10427199203,33.7222893984139));
#1073=CARTESIAN_POINT('Ctrl Pts',(16.4454795538682,-32.7034828633621,33.7732829298671));
#1074=CARTESIAN_POINT('Ctrl Pts',(15.8437036455613,-32.952769942166,33.7945903431859));
#1075=CARTESIAN_POINT('Ctrl Pts',(15.5,-32.952769942166,33.7945903431859));
#1076=CARTESIAN_POINT('Ctrl Pts',(17.,-31.8221612353695,33.0692793703077));
#1077=CARTESIAN_POINT('Ctrl Pts',(16.9842128414464,-32.1521711611465,33.1291605340251));
#1078=CARTESIAN_POINT('Ctrl Pts',(16.6797763462094,-32.8958506596875,33.2650794106201));
#1079=CARTESIAN_POINT('Ctrl Pts',(15.9309474305198,-33.233776223132,33.3273361026789));
#1080=CARTESIAN_POINT('Ctrl Pts',(15.5,-33.233776223132,33.3273361026789));
#1081=CARTESIAN_POINT('Ctrl Pts',(17.,-31.8221612353695,32.8));
#1082=CARTESIAN_POINT('Ctrl Pts',(17.,-32.1519597631254,32.8696946294888));
#1083=CARTESIAN_POINT('Ctrl Pts',(16.7258190811245,-32.9227877384938,33.0325897476341));
#1084=CARTESIAN_POINT('Ctrl Pts',(15.9487989505128,-33.2918550810394,33.110582854123));
#1085=CARTESIAN_POINT('Ctrl Pts',(15.5,-33.2918550810394,33.110582854123));
#1086=CARTESIAN_POINT('',(15.5,-32.1327440894925,34.));
#1087=CARTESIAN_POINT('',(15.5,-33.2918550810394,33.110582854123));
#1088=CARTESIAN_POINT('Origin',(15.5,-32.1327440894925,32.8));
#1089=CARTESIAN_POINT('',(17.,-31.8221612353695,32.8));
#1090=CARTESIAN_POINT('Origin',(15.5,-31.8221612353695,32.8));
#1091=CARTESIAN_POINT('',(15.8,-31.8221612353695,34.));
#1092=CARTESIAN_POINT('Origin',(15.8,-31.8221612353695,32.8));
#1093=CARTESIAN_POINT('Origin',(15.5,-31.8221612353695,34.));
#1094=CARTESIAN_POINT('Origin',(0.,-36.6523119143335,14.7736322578931));
#1095=CARTESIAN_POINT('',(-16.7990381056767,-37.7129720861133,13.7129720861133));
#1096=CARTESIAN_POINT('',(16.7990381056767,-37.7129720861133,13.7129720861133));
#1097=CARTESIAN_POINT('',(0.,-37.7129720861133,13.7129720861133));
#1098=CARTESIAN_POINT('',(15.5,-38.1012006537671,15.1618608255469));
#1099=CARTESIAN_POINT('Origin',(15.5,-36.6523119143335,14.7736322578931));
#1100=CARTESIAN_POINT('',(-15.5,-38.1012006537671,15.1618608255469));
#1101=CARTESIAN_POINT('',(0.,-38.1012006537671,15.1618608255469));
#1102=CARTESIAN_POINT('Origin',(-15.5,-36.6523119143335,14.7736322578931));
#1103=CARTESIAN_POINT('Origin',(15.5,-33.666315793236,25.9175214930327));
#1104=CARTESIAN_POINT('',(17.,-37.1005996504175,13.1005996504175));
#1105=CARTESIAN_POINT('',(17.,-33.666315793236,25.9175214930327));
#1106=CARTESIAN_POINT('',(15.5,-35.1152045326696,26.3057500606865));
#1107=CARTESIAN_POINT('Origin',(15.5,-37.1005996504175,13.1005996504175));
#1108=CARTESIAN_POINT('Origin',(-15.5,-33.666315793236,25.9175214930327));
#1109=CARTESIAN_POINT('',(-15.5,-35.1152045326696,26.3057500606865));
#1110=CARTESIAN_POINT('',(-17.,-37.1005996504175,13.1005996504175));
#1111=CARTESIAN_POINT('',(-17.,-33.666315793236,25.9175214930327));
#1112=CARTESIAN_POINT('Origin',(-15.5,-37.1005996504175,13.1005996504175));
#1113=CARTESIAN_POINT('Origin',(0.,-32.1327440894925,32.8));
#1114=CARTESIAN_POINT('',(0.,-32.1327440894925,34.));
#1115=CARTESIAN_POINT('',(0.,-33.2918550810394,33.110582854123));
#1116=CARTESIAN_POINT('Origin',(0.,0.,34.));
#1117=CARTESIAN_POINT('',(15.8,-26.4386081328046,34.));
#1118=CARTESIAN_POINT('',(15.8,-15.5813361304523,34.));
#1119=CARTESIAN_POINT('',(-15.8,-26.4386081328046,34.));
#1120=CARTESIAN_POINT('Origin',(0.,0.,34.));
#1121=CARTESIAN_POINT('',(-15.8,-15.5813361304523,34.));
#1122=CARTESIAN_POINT('',(1.5,29.9624765331573,34.));
#1123=CARTESIAN_POINT('',(-1.5,29.9624765331573,34.));
#1124=CARTESIAN_POINT('Origin',(0.,0.,34.));
#1125=CARTESIAN_POINT('',(-1.5,28.9,34.));
#1126=CARTESIAN_POINT('',(-1.5,30.3,34.));
#1127=CARTESIAN_POINT('',(1.5,28.9,34.));
#1128=CARTESIAN_POINT('',(-1.5,28.9,34.));
#1129=CARTESIAN_POINT('',(1.5,28.9,34.));
#1130=CARTESIAN_POINT('Origin',(15.8,-15.5813361304523,32.8));
#1131=CARTESIAN_POINT('',(17.,-15.5813361304523,32.8));
#1132=CARTESIAN_POINT('Ctrl Pts',(15.8,-26.4386081328046,34.));
#1133=CARTESIAN_POINT('Ctrl Pts',(15.8016330140387,-26.4395346267583,34.));
#1134=CARTESIAN_POINT('Ctrl Pts',(15.8032660489345,-26.4404610838439,33.9999966665814));
#1135=CARTESIAN_POINT('Ctrl Pts',(15.9028591360205,-26.496959492126,33.999590066574));
#1136=CARTESIAN_POINT('Ctrl Pts',(16.0008372935027,-26.5523639898905,33.9871945806369));
#1137=CARTESIAN_POINT('Ctrl Pts',(16.1909229547986,-26.6595295650008,33.9387078243231));
#1138=CARTESIAN_POINT('Ctrl Pts',(16.2829998485246,-26.7112785287391,33.9029966452415));
#1139=CARTESIAN_POINT('Ctrl Pts',(16.5023457588897,-26.8342287964213,33.7844654930294));
#1140=CARTESIAN_POINT('Ctrl Pts',(16.6229604823559,-26.9015228938804,33.6873744524503));
#1141=CARTESIAN_POINT('Ctrl Pts',(16.8116745010788,-27.00652978824,33.4600329557648));
#1142=CARTESIAN_POINT('Ctrl Pts',(16.8828468484262,-27.0460000287285,33.3368551138623));
#1143=CARTESIAN_POINT('Ctrl Pts',(16.9762966988617,-27.0977772256883,33.0732957823427));
#1144=CARTESIAN_POINT('Ctrl Pts',(17.,-27.1108834234519,32.9377434915172));
#1145=CARTESIAN_POINT('Ctrl Pts',(17.,-27.1108834234519,32.8));
#1146=CARTESIAN_POINT('Origin',(17.,-31.1626722609046,17.));
#1147=CARTESIAN_POINT('',(17.,-24.,0.));
#1148=CARTESIAN_POINT('Origin',(0.,-38.3253445218091,14.3253445218091));
#1149=CARTESIAN_POINT('',(-17.,-24.,0.));
#1150=CARTESIAN_POINT('Origin',(-15.8,-15.5813361304523,32.8));
#1151=CARTESIAN_POINT('Ctrl Pts',(-15.8,-26.4386081328046,34.));
#1152=CARTESIAN_POINT('Ctrl Pts',(-15.8016330140387,-26.4395346267583,34.));
#1153=CARTESIAN_POINT('Ctrl Pts',(-15.8032660489345,-26.4404610838439,33.9999966665814));
#1154=CARTESIAN_POINT('Ctrl Pts',(-15.9028591360208,-26.4969594921261,33.999590066574));
#1155=CARTESIAN_POINT('Ctrl Pts',(-16.0008372935028,-26.5523639898905,33.9871945806369));
#1156=CARTESIAN_POINT('Ctrl Pts',(-16.1909229547986,-26.6595295650008,33.9387078243231));
#1157=CARTESIAN_POINT('Ctrl Pts',(-16.2829998485246,-26.7112785287391,33.9029966452415));
#1158=CARTESIAN_POINT('Ctrl Pts',(-16.5023457588897,-26.8342287964213,33.7844654930294));
#1159=CARTESIAN_POINT('Ctrl Pts',(-16.6229604823559,-26.9015228938805,33.6873744524503));
#1160=CARTESIAN_POINT('Ctrl Pts',(-16.8116745010788,-27.00652978824,33.4600329557648));
#1161=CARTESIAN_POINT('Ctrl Pts',(-16.8828468484262,-27.0460000287285,33.3368551138623));
#1162=CARTESIAN_POINT('Ctrl Pts',(-16.9762966988617,-27.0977772256883,33.0732957823427));
#1163=CARTESIAN_POINT('Ctrl Pts',(-17.,-27.1108834234519,32.9377434915172));
#1164=CARTESIAN_POINT('Ctrl Pts',(-17.,-27.1108834234519,32.8));
#1165=CARTESIAN_POINT('',(-17.,-15.5813361304523,32.8));
#1166=CARTESIAN_POINT('Origin',(0.,0.,32.8));
#1167=CARTESIAN_POINT('Origin',(0.,-33.0535364750673,34.));
#1168=CARTESIAN_POINT('Origin',(-17.,-31.1626722609046,17.));
#1169=CARTESIAN_POINT('Origin',(1.66533453693773E-15,29.6,30.8));
#1170=CARTESIAN_POINT('',(1.5,29.9624765331573,30.8));
#1171=CARTESIAN_POINT('',(-1.5,29.9624765331573,30.8));
#1172=CARTESIAN_POINT('Origin',(0.,0.,30.8));
#1173=CARTESIAN_POINT('',(1.5,28.9,30.8));
#1174=CARTESIAN_POINT('',(1.5,28.9,30.8));
#1175=CARTESIAN_POINT('',(-1.5,28.9,30.8));
#1176=CARTESIAN_POINT('',(-1.5,28.9,30.8));
#1177=CARTESIAN_POINT('',(-1.5,30.3,30.8));
#1178=CARTESIAN_POINT('Origin',(1.5,30.3,34.));
#1179=CARTESIAN_POINT('',(1.5,29.9624765331573,31.8333333333333));
#1180=CARTESIAN_POINT('',(1.5,29.9624765331573,1.7));
#1181=CARTESIAN_POINT('',(1.5,30.3,32.2828079899961));
#1182=CARTESIAN_POINT('',(1.5,30.2127844783065,32.1666666666667));
#1183=CARTESIAN_POINT('',(1.5,30.3,32.7171920100039));
#1184=CARTESIAN_POINT('',(1.5,30.3,34.));
#1185=CARTESIAN_POINT('',(1.5,29.9624765331573,33.1666666666667));
#1186=CARTESIAN_POINT('',(1.5,30.2127844783065,32.8333333333333));
#1187=CARTESIAN_POINT('',(1.5,29.9624765331573,1.7));
#1188=CARTESIAN_POINT('',(1.5,28.9,34.));
#1189=CARTESIAN_POINT('Origin',(-1.5,30.3,34.));
#1190=CARTESIAN_POINT('',(-1.5,30.3,32.2828079899961));
#1191=CARTESIAN_POINT('Ctrl Pts',(-1.5,30.3,32.2828079899961));
#1192=CARTESIAN_POINT('Ctrl Pts',(5.82867087928207E-15,30.3,32.1839191902292));
#1193=CARTESIAN_POINT('Ctrl Pts',(1.5,30.3,32.2828079899961));
#1194=CARTESIAN_POINT('',(-1.5,30.3,32.7171920100039));
#1195=CARTESIAN_POINT('',(-1.5,30.3,34.));
#1196=CARTESIAN_POINT('Ctrl Pts',(1.5,30.3,32.7171920100039));
#1197=CARTESIAN_POINT('Ctrl Pts',(-2.22044604925031E-15,30.3,32.8160808097709));
#1198=CARTESIAN_POINT('Ctrl Pts',(-1.5,30.3,32.7171920100039));
#1199=CARTESIAN_POINT('Origin',(-1.5,28.9,34.));
#1200=CARTESIAN_POINT('',(-1.5,29.9624765331573,31.8333333333333));
#1201=CARTESIAN_POINT('',(-1.5,29.9624765331573,1.7));
#1202=CARTESIAN_POINT('',(-1.5,28.9,34.));
#1203=CARTESIAN_POINT('',(-1.5,29.9624765331573,33.1666666666667));
#1204=CARTESIAN_POINT('',(-1.5,29.9624765331573,1.7));
#1205=CARTESIAN_POINT('',(-1.5,30.2127844783065,32.8333333333333));
#1206=CARTESIAN_POINT('',(-1.5,30.2127844783065,32.1666666666667));
#1207=CARTESIAN_POINT('Origin',(1.5,28.9,34.));
#1208=CARTESIAN_POINT('Origin',(0.,0.,32.1));
#1209=CARTESIAN_POINT('',(-30.,-3.67394039744206E-15,31.8333333333333));
#1210=CARTESIAN_POINT('Origin',(0.,0.,31.8333333333333));
#1211=CARTESIAN_POINT('',(-30.5,-3.73517273739943E-15,32.5));
#1212=CARTESIAN_POINT('',(-30.2,-3.69843333342501E-15,32.1));
#1213=CARTESIAN_POINT('Origin',(0.,0.,32.5));
#1214=CARTESIAN_POINT('Origin',(0.,0.,31.8333333333333));
#1215=CARTESIAN_POINT('Origin',(0.,0.,1.7));
#1216=CARTESIAN_POINT('',(-30.,-3.67394039744206E-15,33.1666666666667));
#1217=CARTESIAN_POINT('Origin',(0.,0.,33.1666666666667));
#1218=CARTESIAN_POINT('Origin',(0.,0.,33.1666666666667));
#1219=CARTESIAN_POINT('Origin',(0.,0.,32.9));
#1220=CARTESIAN_POINT('',(-30.2,-3.69843333342501E-15,32.9));
#1221=CARTESIAN_POINT('Origin',(9.45,-20.97,1.7));
#1222=CARTESIAN_POINT('',(8.7,-20.97,5.5));
#1223=CARTESIAN_POINT('Origin',(9.45,-20.97,5.5));
#1224=CARTESIAN_POINT('',(8.7,-20.97,1.7));
#1225=CARTESIAN_POINT('',(8.7,-20.97,1.7));
#1226=CARTESIAN_POINT('Origin',(9.45,-20.97,1.7));
#1227=CARTESIAN_POINT('Origin',(9.45,-20.97,5.5));
#1228=CARTESIAN_POINT('Origin',(-9.45,-20.97,1.7));
#1229=CARTESIAN_POINT('',(-10.2,-20.97,5.5));
#1230=CARTESIAN_POINT('Origin',(-9.45,-20.97,5.5));
#1231=CARTESIAN_POINT('',(-10.2,-20.97,1.7));
#1232=CARTESIAN_POINT('',(-10.2,-20.97,1.7));
#1233=CARTESIAN_POINT('Origin',(-9.45,-20.97,1.7));
#1234=CARTESIAN_POINT('Origin',(-9.45,-20.97,5.5));
#1235=CARTESIAN_POINT('Origin',(13.,-21.,1.7));
#1236=CARTESIAN_POINT('',(13.,-12.4498995979887,1.7));
#1237=CARTESIAN_POINT('',(13.,-12.4498995979887,3.5));
#1238=CARTESIAN_POINT('',(13.,-12.4498995979887,1.7));
#1239=CARTESIAN_POINT('',(13.,-15.8508674841474,1.7));
#1240=CARTESIAN_POINT('',(13.,-21.,1.7));
#1241=CARTESIAN_POINT('',(13.,-15.8508674841474,8.));
#1242=CARTESIAN_POINT('',(13.,-15.8508674841474,1.7));
#1243=CARTESIAN_POINT('',(13.,-14.5344418537486,8.));
#1244=CARTESIAN_POINT('',(13.,-10.5,8.));
#1245=CARTESIAN_POINT('',(13.,-14.5344418537486,3.5));
#1246=CARTESIAN_POINT('',(13.,-14.5344418537486,3.5));
#1247=CARTESIAN_POINT('',(13.,-10.5,3.5));
#1248=CARTESIAN_POINT('Origin',(-13.,-10.,1.7));
#1249=CARTESIAN_POINT('',(-13.,-12.4498995979887,3.5));
#1250=CARTESIAN_POINT('',(-13.,-12.4498995979887,1.7));
#1251=CARTESIAN_POINT('',(-13.,-12.4498995979887,1.7));
#1252=CARTESIAN_POINT('',(-13.,-14.5344418537486,3.5));
#1253=CARTESIAN_POINT('',(-13.,-5.,3.5));
#1254=CARTESIAN_POINT('',(-13.,-14.5344418537486,8.));
#1255=CARTESIAN_POINT('',(-13.,-14.5344418537486,3.5));
#1256=CARTESIAN_POINT('',(-13.,-15.8508674841474,8.));
#1257=CARTESIAN_POINT('',(-13.,-5.,8.));
#1258=CARTESIAN_POINT('',(-13.,-15.8508674841474,1.7));
#1259=CARTESIAN_POINT('',(-13.,-15.8508674841474,1.7));
#1260=CARTESIAN_POINT('',(-13.,-10.,1.7));
#1261=CARTESIAN_POINT('Origin',(0.,0.,1.7));
#1262=CARTESIAN_POINT('',(-30.,-3.67394039744206E-15,1.7));
#1263=CARTESIAN_POINT('Origin',(0.,0.,1.7));
#1264=CARTESIAN_POINT('Origin',(0.,0.,1.7));
#1265=CARTESIAN_POINT('Origin',(0.,0.,1.7));
#1266=CARTESIAN_POINT('Origin',(0.,0.,3.5));
#1267=CARTESIAN_POINT('Origin',(0.,0.,3.5));
#1268=CARTESIAN_POINT('Origin',(0.,0.,3.5));
#1269=CARTESIAN_POINT('Origin',(0.,0.,3.5));
#1270=CARTESIAN_POINT('Origin',(0.,0.,8.));
#1271=CARTESIAN_POINT('Origin',(0.,0.,8.));
#1272=CARTESIAN_POINT('Origin',(0.,0.,8.));
#1273=CARTESIAN_POINT('Origin',(0.,0.,1.7));
#1274=CARTESIAN_POINT('Origin',(0.,0.,1.7));
#1275=CARTESIAN_POINT('Origin',(0.,0.,1.7));
#1276=CARTESIAN_POINT('',(-30.,-3.67394039744206E-15,1.7));
#1277=UNCERTAINTY_MEASURE_WITH_UNIT(LENGTH_MEASURE(0.01),#1281,
'DISTANCE_ACCURACY_VALUE',
'Maximum model space distance between geometric entities at asserted c
onnectivities');
#1278=UNCERTAINTY_MEASURE_WITH_UNIT(LENGTH_MEASURE(0.01),#1281,
'DISTANCE_ACCURACY_VALUE',
'Maximum model space distance between geometric entities at asserted c
onnectivities');
#1279=(
GEOMETRIC_REPRESENTATION_CONTEXT(3)
GLOBAL_UNCERTAINTY_ASSIGNED_CONTEXT((#1277))
GLOBAL_UNIT_ASSIGNED_CONTEXT((#1281,#1283,#1284))
REPRESENTATION_CONTEXT('','3D')
);
#1280=(
GEOMETRIC_REPRESENTATION_CONTEXT(3)
GLOBAL_UNCERTAINTY_ASSIGNED_CONTEXT((#1278))
GLOBAL_UNIT_ASSIGNED_CONTEXT((#1281,#1283,#1284))
REPRESENTATION_CONTEXT('','3D')
);
#1281=(
LENGTH_UNIT()
NAMED_UNIT(*)
SI_UNIT(.MILLI.,.METRE.)
);
#1282=(
LENGTH_UNIT()
NAMED_UNIT(*)
SI_UNIT($,.METRE.)
);
#1283=(
NAMED_UNIT(*)
PLANE_ANGLE_UNIT()
SI_UNIT($,.RADIAN.)
);
#1284=(
NAMED_UNIT(*)
SI_UNIT($,.STERADIAN.)
SOLID_ANGLE_UNIT()
);
#1285=SHAPE_DEFINITION_REPRESENTATION(#1286,#1287);
#1286=PRODUCT_DEFINITION_SHAPE('',$,#1289);
#1287=SHAPE_REPRESENTATION('',(#709),#1279);
#1288=PRODUCT_DEFINITION_CONTEXT('part definition',#1293,'design');
#1289=PRODUCT_DEFINITION('2026-09-26-20-03-09-535','Gehaeuse',#1290,#1288);
#1290=PRODUCT_DEFINITION_FORMATION('',$,#1295);
#1291=PRODUCT_RELATED_PRODUCT_CATEGORY('Gehaeuse','Gehaeuse',(#1295));
#1292=APPLICATION_PROTOCOL_DEFINITION('international standard',
'automotive_design',2009,#1293);
#1293=APPLICATION_CONTEXT(
'Core Data for Automotive Mechanical Design Process');
#1294=PRODUCT_CONTEXT('part definition',#1293,'mechanical');
#1295=PRODUCT('2026-09-26-20-03-09-535','Gehaeuse',$,(#1294));
#1296=PRESENTATION_STYLE_ASSIGNMENT((#1298));
#1297=PRESENTATION_STYLE_ASSIGNMENT((#1299));
#1298=SURFACE_STYLE_USAGE(.BOTH.,#1300);
#1299=SURFACE_STYLE_USAGE(.BOTH.,#1301);
#1300=SURFACE_SIDE_STYLE('',(#1302));
#1301=SURFACE_SIDE_STYLE('',(#1303));
#1302=SURFACE_STYLE_FILL_AREA(#1304);
#1303=SURFACE_STYLE_FILL_AREA(#1305);
#1304=FILL_AREA_STYLE('Stahl - satiniert',(#1306));
#1305=FILL_AREA_STYLE('Kunststoff - matt (Wei\X\DF)',(#1307));
#1306=FILL_AREA_STYLE_COLOUR('Stahl - satiniert',#1308);
#1307=FILL_AREA_STYLE_COLOUR('Kunststoff - matt (Wei\X\DF)',#1309);
#1308=COLOUR_RGB('Stahl - satiniert',0.627450980392157,0.627450980392157,
0.627450980392157);
#1309=COLOUR_RGB('Kunststoff - matt (Wei\X\DF)',0.964705882352941,0.964705882352941,
0.952941176470588);
ENDSEC;
END-ISO-10303-21;
