ISO-10303-21;
HEADER;
/* Generated by software containing ST-Developer
 * from STEP Tools, Inc. (www.steptools.com) 
 */

FILE_DESCRIPTION(
/* description */ (''),
/* implementation_level */ '2;1');

FILE_NAME(
/* name */ 'Klemmring.step',
/* time_stamp */ '2026-09-26T20:03:12+02:00',
/* author */ (''),
/* organization */ (''),
/* preprocessor_version */ 'ST-DEVELOPER v20.2',
/* originating_system */ 'Autodesk Translation Framework v15.15.0.0',
/* authorisation */ '');

FILE_SCHEMA (('AUTOMOTIVE_DESIGN { 1 0 10303 214 3 1 1 }'));
ENDSEC;

DATA;
#10=MECHANICAL_DESIGN_GEOMETRIC_PRESENTATION_REPRESENTATION('',(#13),#655);
#11=SHAPE_REPRESENTATION_RELATIONSHIP('SRR','None',#662,#12);
#12=ADVANCED_BREP_SHAPE_REPRESENTATION('',(#14),#654);
#13=STYLED_ITEM('',(#672),#14);
#14=MANIFOLD_SOLID_BREP('Klemmring',#391);
#15=CYLINDRICAL_SURFACE('',#415,19.3);
#16=CYLINDRICAL_SURFACE('',#417,19.3);
#17=CYLINDRICAL_SURFACE('',#425,19.3);
#18=CYLINDRICAL_SURFACE('',#427,19.3);
#19=CYLINDRICAL_SURFACE('',#432,16.4);
#20=CIRCLE('',#409,19.3);
#21=CIRCLE('',#410,19.3);
#22=CIRCLE('',#411,19.3);
#23=CIRCLE('',#412,19.3);
#24=CIRCLE('',#413,16.4);
#25=CIRCLE('',#416,19.3);
#26=CIRCLE('',#418,19.3);
#27=CIRCLE('',#426,19.3);
#28=CIRCLE('',#428,19.3);
#29=CIRCLE('',#433,16.4);
#30=FACE_OUTER_BOUND('',#50,.T.);
#31=FACE_OUTER_BOUND('',#51,.T.);
#32=FACE_OUTER_BOUND('',#52,.T.);
#33=FACE_OUTER_BOUND('',#53,.T.);
#34=FACE_OUTER_BOUND('',#54,.T.);
#35=FACE_OUTER_BOUND('',#55,.T.);
#36=FACE_OUTER_BOUND('',#56,.T.);
#37=FACE_OUTER_BOUND('',#57,.T.);
#38=FACE_OUTER_BOUND('',#58,.T.);
#39=FACE_OUTER_BOUND('',#59,.T.);
#40=FACE_OUTER_BOUND('',#60,.T.);
#41=FACE_OUTER_BOUND('',#61,.T.);
#42=FACE_OUTER_BOUND('',#62,.T.);
#43=FACE_OUTER_BOUND('',#63,.T.);
#44=FACE_OUTER_BOUND('',#64,.T.);
#45=FACE_OUTER_BOUND('',#65,.T.);
#46=FACE_OUTER_BOUND('',#66,.T.);
#47=FACE_OUTER_BOUND('',#67,.T.);
#48=FACE_OUTER_BOUND('',#68,.T.);
#49=FACE_OUTER_BOUND('',#69,.T.);
#50=EDGE_LOOP('',(#248,#249,#250,#251));
#51=EDGE_LOOP('',(#252,#253,#254,#255));
#52=EDGE_LOOP('',(#256,#257,#258,#259));
#53=EDGE_LOOP('',(#260,#261,#262,#263,#264,#265,#266,#267,#268,#269,#270,
#271,#272,#273,#274,#275,#276,#277));
#54=EDGE_LOOP('',(#278,#279,#280,#281));
#55=EDGE_LOOP('',(#282,#283,#284,#285));
#56=EDGE_LOOP('',(#286,#287,#288,#289));
#57=EDGE_LOOP('',(#290,#291,#292,#293));
#58=EDGE_LOOP('',(#294,#295,#296,#297));
#59=EDGE_LOOP('',(#298,#299,#300,#301));
#60=EDGE_LOOP('',(#302,#303,#304,#305));
#61=EDGE_LOOP('',(#306,#307,#308,#309));
#62=EDGE_LOOP('',(#310,#311,#312,#313));
#63=EDGE_LOOP('',(#314,#315,#316,#317));
#64=EDGE_LOOP('',(#318,#319,#320,#321));
#65=EDGE_LOOP('',(#322,#323,#324,#325));
#66=EDGE_LOOP('',(#326,#327,#328,#329));
#67=EDGE_LOOP('',(#330,#331,#332,#333));
#68=EDGE_LOOP('',(#334,#335,#336,#337));
#69=EDGE_LOOP('',(#338,#339,#340,#341,#342,#343,#344,#345,#346,#347,#348,
#349,#350,#351,#352,#353,#354,#355));
#70=LINE('',#545,#114);
#71=LINE('',#547,#115);
#72=LINE('',#549,#116);
#73=LINE('',#550,#117);
#74=LINE('',#554,#118);
#75=LINE('',#556,#119);
#76=LINE('',#558,#120);
#77=LINE('',#559,#121);
#78=LINE('',#562,#122);
#79=LINE('',#564,#123);
#80=LINE('',#565,#124);
#81=LINE('',#570,#125);
#82=LINE('',#572,#126);
#83=LINE('',#574,#127);
#84=LINE('',#578,#128);
#85=LINE('',#580,#129);
#86=LINE('',#582,#130);
#87=LINE('',#586,#131);
#88=LINE('',#588,#132);
#89=LINE('',#590,#133);
#90=LINE('',#593,#134);
#91=LINE('',#597,#135);
#92=LINE('',#598,#136);
#93=LINE('',#602,#137);
#94=LINE('',#605,#138);
#95=LINE('',#609,#139);
#96=LINE('',#611,#140);
#97=LINE('',#612,#141);
#98=LINE('',#615,#142);
#99=LINE('',#616,#143);
#100=LINE('',#618,#144);
#101=LINE('',#621,#145);
#102=LINE('',#623,#146);
#103=LINE('',#624,#147);
#104=LINE('',#627,#148);
#105=LINE('',#628,#149);
#106=LINE('',#630,#150);
#107=LINE('',#634,#151);
#108=LINE('',#637,#152);
#109=LINE('',#641,#153);
#110=LINE('',#642,#154);
#111=LINE('',#645,#155);
#112=LINE('',#646,#156);
#113=LINE('',#648,#157);
#114=VECTOR('',#439,10.);
#115=VECTOR('',#440,10.);
#116=VECTOR('',#441,10.);
#117=VECTOR('',#442,10.);
#118=VECTOR('',#445,10.);
#119=VECTOR('',#446,10.);
#120=VECTOR('',#447,10.);
#121=VECTOR('',#448,10.);
#122=VECTOR('',#451,10.);
#123=VECTOR('',#452,10.);
#124=VECTOR('',#453,10.);
#125=VECTOR('',#458,10.);
#126=VECTOR('',#459,10.);
#127=VECTOR('',#460,10.);
#128=VECTOR('',#463,10.);
#129=VECTOR('',#464,10.);
#130=VECTOR('',#465,10.);
#131=VECTOR('',#468,10.);
#132=VECTOR('',#469,10.);
#133=VECTOR('',#470,10.);
#134=VECTOR('',#473,10.);
#135=VECTOR('',#478,10.);
#136=VECTOR('',#479,10.);
#137=VECTOR('',#484,10.);
#138=VECTOR('',#487,10.);
#139=VECTOR('',#492,10.);
#140=VECTOR('',#493,10.);
#141=VECTOR('',#494,10.);
#142=VECTOR('',#497,10.);
#143=VECTOR('',#498,10.);
#144=VECTOR('',#501,10.);
#145=VECTOR('',#504,10.);
#146=VECTOR('',#505,10.);
#147=VECTOR('',#506,10.);
#148=VECTOR('',#509,10.);
#149=VECTOR('',#510,10.);
#150=VECTOR('',#513,10.);
#151=VECTOR('',#518,10.);
#152=VECTOR('',#521,10.);
#153=VECTOR('',#526,10.);
#154=VECTOR('',#527,10.);
#155=VECTOR('',#530,10.);
#156=VECTOR('',#531,10.);
#157=VECTOR('',#534,10.);
#158=VERTEX_POINT('',#543);
#159=VERTEX_POINT('',#544);
#160=VERTEX_POINT('',#546);
#161=VERTEX_POINT('',#548);
#162=VERTEX_POINT('',#552);
#163=VERTEX_POINT('',#553);
#164=VERTEX_POINT('',#555);
#165=VERTEX_POINT('',#557);
#166=VERTEX_POINT('',#561);
#167=VERTEX_POINT('',#563);
#168=VERTEX_POINT('',#567);
#169=VERTEX_POINT('',#569);
#170=VERTEX_POINT('',#571);
#171=VERTEX_POINT('',#573);
#172=VERTEX_POINT('',#575);
#173=VERTEX_POINT('',#577);
#174=VERTEX_POINT('',#579);
#175=VERTEX_POINT('',#581);
#176=VERTEX_POINT('',#583);
#177=VERTEX_POINT('',#585);
#178=VERTEX_POINT('',#587);
#179=VERTEX_POINT('',#589);
#180=VERTEX_POINT('',#592);
#181=VERTEX_POINT('',#596);
#182=VERTEX_POINT('',#600);
#183=VERTEX_POINT('',#604);
#184=VERTEX_POINT('',#608);
#185=VERTEX_POINT('',#610);
#186=VERTEX_POINT('',#614);
#187=VERTEX_POINT('',#620);
#188=VERTEX_POINT('',#622);
#189=VERTEX_POINT('',#626);
#190=VERTEX_POINT('',#632);
#191=VERTEX_POINT('',#636);
#192=VERTEX_POINT('',#640);
#193=VERTEX_POINT('',#644);
#194=EDGE_CURVE('',#158,#159,#70,.T.);
#195=EDGE_CURVE('',#160,#158,#71,.T.);
#196=EDGE_CURVE('',#161,#160,#72,.T.);
#197=EDGE_CURVE('',#159,#161,#73,.T.);
#198=EDGE_CURVE('',#162,#163,#74,.T.);
#199=EDGE_CURVE('',#164,#162,#75,.T.);
#200=EDGE_CURVE('',#165,#164,#76,.T.);
#201=EDGE_CURVE('',#163,#165,#77,.T.);
#202=EDGE_CURVE('',#166,#163,#78,.T.);
#203=EDGE_CURVE('',#167,#166,#79,.T.);
#204=EDGE_CURVE('',#162,#167,#80,.T.);
#205=EDGE_CURVE('',#168,#165,#20,.T.);
#206=EDGE_CURVE('',#169,#168,#81,.T.);
#207=EDGE_CURVE('',#170,#169,#82,.T.);
#208=EDGE_CURVE('',#171,#170,#83,.T.);
#209=EDGE_CURVE('',#172,#171,#21,.T.);
#210=EDGE_CURVE('',#173,#172,#84,.T.);
#211=EDGE_CURVE('',#174,#173,#85,.T.);
#212=EDGE_CURVE('',#175,#174,#86,.T.);
#213=EDGE_CURVE('',#176,#175,#22,.T.);
#214=EDGE_CURVE('',#177,#176,#87,.T.);
#215=EDGE_CURVE('',#178,#177,#88,.T.);
#216=EDGE_CURVE('',#179,#178,#89,.T.);
#217=EDGE_CURVE('',#160,#179,#23,.T.);
#218=EDGE_CURVE('',#158,#180,#90,.T.);
#219=EDGE_CURVE('',#180,#166,#24,.T.);
#220=EDGE_CURVE('',#181,#159,#91,.T.);
#221=EDGE_CURVE('',#180,#181,#92,.T.);
#222=EDGE_CURVE('',#182,#164,#25,.T.);
#223=EDGE_CURVE('',#182,#168,#93,.T.);
#224=EDGE_CURVE('',#179,#183,#94,.T.);
#225=EDGE_CURVE('',#161,#183,#26,.T.);
#226=EDGE_CURVE('',#184,#176,#95,.T.);
#227=EDGE_CURVE('',#185,#184,#96,.T.);
#228=EDGE_CURVE('',#177,#185,#97,.T.);
#229=EDGE_CURVE('',#178,#186,#98,.T.);
#230=EDGE_CURVE('',#183,#186,#99,.T.);
#231=EDGE_CURVE('',#186,#185,#100,.T.);
#232=EDGE_CURVE('',#171,#187,#101,.T.);
#233=EDGE_CURVE('',#170,#188,#102,.T.);
#234=EDGE_CURVE('',#187,#188,#103,.T.);
#235=EDGE_CURVE('',#189,#182,#104,.T.);
#236=EDGE_CURVE('',#169,#189,#105,.T.);
#237=EDGE_CURVE('',#188,#189,#106,.T.);
#238=EDGE_CURVE('',#190,#187,#27,.T.);
#239=EDGE_CURVE('',#190,#172,#107,.T.);
#240=EDGE_CURVE('',#175,#191,#108,.T.);
#241=EDGE_CURVE('',#184,#191,#28,.T.);
#242=EDGE_CURVE('',#192,#190,#109,.T.);
#243=EDGE_CURVE('',#173,#192,#110,.T.);
#244=EDGE_CURVE('',#174,#193,#111,.T.);
#245=EDGE_CURVE('',#191,#193,#112,.T.);
#246=EDGE_CURVE('',#193,#192,#113,.T.);
#247=EDGE_CURVE('',#167,#181,#29,.T.);
#248=ORIENTED_EDGE('',*,*,#194,.F.);
#249=ORIENTED_EDGE('',*,*,#195,.F.);
#250=ORIENTED_EDGE('',*,*,#196,.F.);
#251=ORIENTED_EDGE('',*,*,#197,.F.);
#252=ORIENTED_EDGE('',*,*,#198,.F.);
#253=ORIENTED_EDGE('',*,*,#199,.F.);
#254=ORIENTED_EDGE('',*,*,#200,.F.);
#255=ORIENTED_EDGE('',*,*,#201,.F.);
#256=ORIENTED_EDGE('',*,*,#198,.T.);
#257=ORIENTED_EDGE('',*,*,#202,.F.);
#258=ORIENTED_EDGE('',*,*,#203,.F.);
#259=ORIENTED_EDGE('',*,*,#204,.F.);
#260=ORIENTED_EDGE('',*,*,#201,.T.);
#261=ORIENTED_EDGE('',*,*,#205,.F.);
#262=ORIENTED_EDGE('',*,*,#206,.F.);
#263=ORIENTED_EDGE('',*,*,#207,.F.);
#264=ORIENTED_EDGE('',*,*,#208,.F.);
#265=ORIENTED_EDGE('',*,*,#209,.F.);
#266=ORIENTED_EDGE('',*,*,#210,.F.);
#267=ORIENTED_EDGE('',*,*,#211,.F.);
#268=ORIENTED_EDGE('',*,*,#212,.F.);
#269=ORIENTED_EDGE('',*,*,#213,.F.);
#270=ORIENTED_EDGE('',*,*,#214,.F.);
#271=ORIENTED_EDGE('',*,*,#215,.F.);
#272=ORIENTED_EDGE('',*,*,#216,.F.);
#273=ORIENTED_EDGE('',*,*,#217,.F.);
#274=ORIENTED_EDGE('',*,*,#195,.T.);
#275=ORIENTED_EDGE('',*,*,#218,.T.);
#276=ORIENTED_EDGE('',*,*,#219,.T.);
#277=ORIENTED_EDGE('',*,*,#202,.T.);
#278=ORIENTED_EDGE('',*,*,#194,.T.);
#279=ORIENTED_EDGE('',*,*,#220,.F.);
#280=ORIENTED_EDGE('',*,*,#221,.F.);
#281=ORIENTED_EDGE('',*,*,#218,.F.);
#282=ORIENTED_EDGE('',*,*,#200,.T.);
#283=ORIENTED_EDGE('',*,*,#222,.F.);
#284=ORIENTED_EDGE('',*,*,#223,.T.);
#285=ORIENTED_EDGE('',*,*,#205,.T.);
#286=ORIENTED_EDGE('',*,*,#196,.T.);
#287=ORIENTED_EDGE('',*,*,#217,.T.);
#288=ORIENTED_EDGE('',*,*,#224,.T.);
#289=ORIENTED_EDGE('',*,*,#225,.F.);
#290=ORIENTED_EDGE('',*,*,#226,.F.);
#291=ORIENTED_EDGE('',*,*,#227,.F.);
#292=ORIENTED_EDGE('',*,*,#228,.F.);
#293=ORIENTED_EDGE('',*,*,#214,.T.);
#294=ORIENTED_EDGE('',*,*,#224,.F.);
#295=ORIENTED_EDGE('',*,*,#216,.T.);
#296=ORIENTED_EDGE('',*,*,#229,.T.);
#297=ORIENTED_EDGE('',*,*,#230,.F.);
#298=ORIENTED_EDGE('',*,*,#215,.T.);
#299=ORIENTED_EDGE('',*,*,#228,.T.);
#300=ORIENTED_EDGE('',*,*,#231,.F.);
#301=ORIENTED_EDGE('',*,*,#229,.F.);
#302=ORIENTED_EDGE('',*,*,#232,.F.);
#303=ORIENTED_EDGE('',*,*,#208,.T.);
#304=ORIENTED_EDGE('',*,*,#233,.T.);
#305=ORIENTED_EDGE('',*,*,#234,.F.);
#306=ORIENTED_EDGE('',*,*,#223,.F.);
#307=ORIENTED_EDGE('',*,*,#235,.F.);
#308=ORIENTED_EDGE('',*,*,#236,.F.);
#309=ORIENTED_EDGE('',*,*,#206,.T.);
#310=ORIENTED_EDGE('',*,*,#207,.T.);
#311=ORIENTED_EDGE('',*,*,#236,.T.);
#312=ORIENTED_EDGE('',*,*,#237,.F.);
#313=ORIENTED_EDGE('',*,*,#233,.F.);
#314=ORIENTED_EDGE('',*,*,#232,.T.);
#315=ORIENTED_EDGE('',*,*,#238,.F.);
#316=ORIENTED_EDGE('',*,*,#239,.T.);
#317=ORIENTED_EDGE('',*,*,#209,.T.);
#318=ORIENTED_EDGE('',*,*,#226,.T.);
#319=ORIENTED_EDGE('',*,*,#213,.T.);
#320=ORIENTED_EDGE('',*,*,#240,.T.);
#321=ORIENTED_EDGE('',*,*,#241,.F.);
#322=ORIENTED_EDGE('',*,*,#239,.F.);
#323=ORIENTED_EDGE('',*,*,#242,.F.);
#324=ORIENTED_EDGE('',*,*,#243,.F.);
#325=ORIENTED_EDGE('',*,*,#210,.T.);
#326=ORIENTED_EDGE('',*,*,#240,.F.);
#327=ORIENTED_EDGE('',*,*,#212,.T.);
#328=ORIENTED_EDGE('',*,*,#244,.T.);
#329=ORIENTED_EDGE('',*,*,#245,.F.);
#330=ORIENTED_EDGE('',*,*,#211,.T.);
#331=ORIENTED_EDGE('',*,*,#243,.T.);
#332=ORIENTED_EDGE('',*,*,#246,.F.);
#333=ORIENTED_EDGE('',*,*,#244,.F.);
#334=ORIENTED_EDGE('',*,*,#221,.T.);
#335=ORIENTED_EDGE('',*,*,#247,.F.);
#336=ORIENTED_EDGE('',*,*,#203,.T.);
#337=ORIENTED_EDGE('',*,*,#219,.F.);
#338=ORIENTED_EDGE('',*,*,#199,.T.);
#339=ORIENTED_EDGE('',*,*,#204,.T.);
#340=ORIENTED_EDGE('',*,*,#247,.T.);
#341=ORIENTED_EDGE('',*,*,#220,.T.);
#342=ORIENTED_EDGE('',*,*,#197,.T.);
#343=ORIENTED_EDGE('',*,*,#225,.T.);
#344=ORIENTED_EDGE('',*,*,#230,.T.);
#345=ORIENTED_EDGE('',*,*,#231,.T.);
#346=ORIENTED_EDGE('',*,*,#227,.T.);
#347=ORIENTED_EDGE('',*,*,#241,.T.);
#348=ORIENTED_EDGE('',*,*,#245,.T.);
#349=ORIENTED_EDGE('',*,*,#246,.T.);
#350=ORIENTED_EDGE('',*,*,#242,.T.);
#351=ORIENTED_EDGE('',*,*,#238,.T.);
#352=ORIENTED_EDGE('',*,*,#234,.T.);
#353=ORIENTED_EDGE('',*,*,#237,.T.);
#354=ORIENTED_EDGE('',*,*,#235,.T.);
#355=ORIENTED_EDGE('',*,*,#222,.T.);
#356=PLANE('',#405);
#357=PLANE('',#406);
#358=PLANE('',#407);
#359=PLANE('',#408);
#360=PLANE('',#414);
#361=PLANE('',#419);
#362=PLANE('',#420);
#363=PLANE('',#421);
#364=PLANE('',#422);
#365=PLANE('',#423);
#366=PLANE('',#424);
#367=PLANE('',#429);
#368=PLANE('',#430);
#369=PLANE('',#431);
#370=PLANE('',#434);
#371=ADVANCED_FACE('',(#30),#356,.F.);
#372=ADVANCED_FACE('',(#31),#357,.F.);
#373=ADVANCED_FACE('',(#32),#358,.F.);
#374=ADVANCED_FACE('',(#33),#359,.F.);
#375=ADVANCED_FACE('',(#34),#360,.F.);
#376=ADVANCED_FACE('',(#35),#15,.T.);
#377=ADVANCED_FACE('',(#36),#16,.T.);
#378=ADVANCED_FACE('',(#37),#361,.T.);
#379=ADVANCED_FACE('',(#38),#362,.T.);
#380=ADVANCED_FACE('',(#39),#363,.T.);
#381=ADVANCED_FACE('',(#40),#364,.T.);
#382=ADVANCED_FACE('',(#41),#365,.T.);
#383=ADVANCED_FACE('',(#42),#366,.T.);
#384=ADVANCED_FACE('',(#43),#17,.T.);
#385=ADVANCED_FACE('',(#44),#18,.T.);
#386=ADVANCED_FACE('',(#45),#367,.T.);
#387=ADVANCED_FACE('',(#46),#368,.T.);
#388=ADVANCED_FACE('',(#47),#369,.T.);
#389=ADVANCED_FACE('',(#48),#19,.F.);
#390=ADVANCED_FACE('',(#49),#370,.T.);
#391=CLOSED_SHELL('',(#371,#372,#373,#374,#375,#376,#377,#378,#379,#380,
#381,#382,#383,#384,#385,#386,#387,#388,#389,#390));
#392=DERIVED_UNIT_ELEMENT(#394,1.);
#393=DERIVED_UNIT_ELEMENT(#657,-3.);
#394=(
MASS_UNIT()
NAMED_UNIT(*)
SI_UNIT(.KILO.,.GRAM.)
);
#395=DERIVED_UNIT((#392,#393));
#396=MEASURE_REPRESENTATION_ITEM('density measure',
POSITIVE_RATIO_MEASURE(7850.),#395);
#397=PROPERTY_DEFINITION_REPRESENTATION(#402,#399);
#398=PROPERTY_DEFINITION_REPRESENTATION(#403,#400);
#399=REPRESENTATION('material name',(#401),#654);
#400=REPRESENTATION('density',(#396),#654);
#401=DESCRIPTIVE_REPRESENTATION_ITEM('Stahl','Stahl');
#402=PROPERTY_DEFINITION('material property','material name',#664);
#403=PROPERTY_DEFINITION('material property','density of part',#664);
#404=AXIS2_PLACEMENT_3D('',#541,#435,#436);
#405=AXIS2_PLACEMENT_3D('',#542,#437,#438);
#406=AXIS2_PLACEMENT_3D('',#551,#443,#444);
#407=AXIS2_PLACEMENT_3D('',#560,#449,#450);
#408=AXIS2_PLACEMENT_3D('',#566,#454,#455);
#409=AXIS2_PLACEMENT_3D('',#568,#456,#457);
#410=AXIS2_PLACEMENT_3D('',#576,#461,#462);
#411=AXIS2_PLACEMENT_3D('',#584,#466,#467);
#412=AXIS2_PLACEMENT_3D('',#591,#471,#472);
#413=AXIS2_PLACEMENT_3D('',#594,#474,#475);
#414=AXIS2_PLACEMENT_3D('',#595,#476,#477);
#415=AXIS2_PLACEMENT_3D('',#599,#480,#481);
#416=AXIS2_PLACEMENT_3D('',#601,#482,#483);
#417=AXIS2_PLACEMENT_3D('',#603,#485,#486);
#418=AXIS2_PLACEMENT_3D('',#606,#488,#489);
#419=AXIS2_PLACEMENT_3D('',#607,#490,#491);
#420=AXIS2_PLACEMENT_3D('',#613,#495,#496);
#421=AXIS2_PLACEMENT_3D('',#617,#499,#500);
#422=AXIS2_PLACEMENT_3D('',#619,#502,#503);
#423=AXIS2_PLACEMENT_3D('',#625,#507,#508);
#424=AXIS2_PLACEMENT_3D('',#629,#511,#512);
#425=AXIS2_PLACEMENT_3D('',#631,#514,#515);
#426=AXIS2_PLACEMENT_3D('',#633,#516,#517);
#427=AXIS2_PLACEMENT_3D('',#635,#519,#520);
#428=AXIS2_PLACEMENT_3D('',#638,#522,#523);
#429=AXIS2_PLACEMENT_3D('',#639,#524,#525);
#430=AXIS2_PLACEMENT_3D('',#643,#528,#529);
#431=AXIS2_PLACEMENT_3D('',#647,#532,#533);
#432=AXIS2_PLACEMENT_3D('',#649,#535,#536);
#433=AXIS2_PLACEMENT_3D('',#650,#537,#538);
#434=AXIS2_PLACEMENT_3D('',#651,#539,#540);
#435=DIRECTION('axis',(0.,0.,1.));
#436=DIRECTION('refdir',(1.,0.,0.));
#437=DIRECTION('center_axis',(0.,1.,0.));
#438=DIRECTION('ref_axis',(-1.,0.,0.));
#439=DIRECTION('',(0.,0.,1.));
#440=DIRECTION('',(-1.,0.,0.));
#441=DIRECTION('',(0.,0.,-1.));
#442=DIRECTION('',(1.,0.,0.));
#443=DIRECTION('center_axis',(0.,1.,0.));
#444=DIRECTION('ref_axis',(-1.,0.,0.));
#445=DIRECTION('',(0.,0.,-1.));
#446=DIRECTION('',(1.,0.,0.));
#447=DIRECTION('',(0.,0.,1.));
#448=DIRECTION('',(-1.,0.,0.));
#449=DIRECTION('center_axis',(-1.,0.,0.));
#450=DIRECTION('ref_axis',(0.,-1.,0.));
#451=DIRECTION('',(0.,-1.,0.));
#452=DIRECTION('',(0.,0.,-1.));
#453=DIRECTION('',(0.,1.,0.));
#454=DIRECTION('center_axis',(0.,0.,1.));
#455=DIRECTION('ref_axis',(1.,0.,0.));
#456=DIRECTION('center_axis',(0.,0.,1.));
#457=DIRECTION('ref_axis',(1.,0.,0.));
#458=DIRECTION('',(0.866025403784439,0.499999999999999,0.));
#459=DIRECTION('',(0.5,-0.866025403784439,0.));
#460=DIRECTION('',(-0.866025403784439,-0.499999999999999,0.));
#461=DIRECTION('center_axis',(0.,0.,1.));
#462=DIRECTION('ref_axis',(1.,0.,0.));
#463=DIRECTION('',(0.,-1.,0.));
#464=DIRECTION('',(-1.,0.,0.));
#465=DIRECTION('',(0.,1.,0.));
#466=DIRECTION('center_axis',(0.,0.,1.));
#467=DIRECTION('ref_axis',(1.,0.,0.));
#468=DIRECTION('',(-0.866025403784439,0.5,0.));
#469=DIRECTION('',(0.5,0.866025403784439,0.));
#470=DIRECTION('',(0.866025403784439,-0.499999999999999,0.));
#471=DIRECTION('center_axis',(0.,0.,1.));
#472=DIRECTION('ref_axis',(1.,0.,0.));
#473=DIRECTION('',(0.,1.,0.));
#474=DIRECTION('center_axis',(0.,0.,1.));
#475=DIRECTION('ref_axis',(1.,0.,0.));
#476=DIRECTION('center_axis',(1.,0.,0.));
#477=DIRECTION('ref_axis',(0.,1.,0.));
#478=DIRECTION('',(0.,-1.,0.));
#479=DIRECTION('',(0.,0.,1.));
#480=DIRECTION('center_axis',(0.,0.,1.));
#481=DIRECTION('ref_axis',(1.,0.,0.));
#482=DIRECTION('center_axis',(0.,0.,1.));
#483=DIRECTION('ref_axis',(1.,0.,0.));
#484=DIRECTION('',(0.,0.,-1.));
#485=DIRECTION('center_axis',(0.,0.,1.));
#486=DIRECTION('ref_axis',(1.,0.,0.));
#487=DIRECTION('',(0.,0.,1.));
#488=DIRECTION('center_axis',(0.,0.,1.));
#489=DIRECTION('ref_axis',(1.,0.,0.));
#490=DIRECTION('center_axis',(0.5,0.866025403784439,0.));
#491=DIRECTION('ref_axis',(-0.866025403784439,0.5,0.));
#492=DIRECTION('',(0.,0.,-1.));
#493=DIRECTION('',(-0.866025403784439,0.5,0.));
#494=DIRECTION('',(0.,0.,1.));
#495=DIRECTION('center_axis',(-0.499999999999999,-0.866025403784439,0.));
#496=DIRECTION('ref_axis',(0.866025403784439,-0.499999999999999,0.));
#497=DIRECTION('',(0.,0.,1.));
#498=DIRECTION('',(0.866025403784439,-0.499999999999999,0.));
#499=DIRECTION('center_axis',(0.866025403784439,-0.5,0.));
#500=DIRECTION('ref_axis',(0.5,0.866025403784439,0.));
#501=DIRECTION('',(0.5,0.866025403784439,0.));
#502=DIRECTION('center_axis',(-0.499999999999999,0.866025403784439,0.));
#503=DIRECTION('ref_axis',(-0.866025403784439,-0.499999999999999,0.));
#504=DIRECTION('',(0.,0.,1.));
#505=DIRECTION('',(0.,0.,1.));
#506=DIRECTION('',(-0.866025403784439,-0.499999999999999,0.));
#507=DIRECTION('center_axis',(0.499999999999999,-0.866025403784439,0.));
#508=DIRECTION('ref_axis',(0.866025403784439,0.499999999999999,0.));
#509=DIRECTION('',(0.866025403784439,0.499999999999999,0.));
#510=DIRECTION('',(0.,0.,1.));
#511=DIRECTION('center_axis',(-0.866025403784439,-0.5,0.));
#512=DIRECTION('ref_axis',(0.5,-0.866025403784439,0.));
#513=DIRECTION('',(0.5,-0.866025403784439,0.));
#514=DIRECTION('center_axis',(0.,0.,1.));
#515=DIRECTION('ref_axis',(-0.866025403784439,0.5,0.));
#516=DIRECTION('center_axis',(0.,0.,1.));
#517=DIRECTION('ref_axis',(1.,0.,0.));
#518=DIRECTION('',(0.,0.,-1.));
#519=DIRECTION('center_axis',(0.,0.,1.));
#520=DIRECTION('ref_axis',(1.,0.,0.));
#521=DIRECTION('',(0.,0.,1.));
#522=DIRECTION('center_axis',(0.,0.,1.));
#523=DIRECTION('ref_axis',(1.,0.,0.));
#524=DIRECTION('center_axis',(-1.,0.,0.));
#525=DIRECTION('ref_axis',(0.,-1.,0.));
#526=DIRECTION('',(0.,-1.,0.));
#527=DIRECTION('',(0.,0.,1.));
#528=DIRECTION('center_axis',(1.,0.,0.));
#529=DIRECTION('ref_axis',(0.,1.,0.));
#530=DIRECTION('',(0.,0.,1.));
#531=DIRECTION('',(0.,1.,0.));
#532=DIRECTION('center_axis',(0.,1.,0.));
#533=DIRECTION('ref_axis',(-1.,0.,0.));
#534=DIRECTION('',(-1.,0.,0.));
#535=DIRECTION('center_axis',(0.,0.,1.));
#536=DIRECTION('ref_axis',(6.12323399573677E-17,1.,0.));
#537=DIRECTION('center_axis',(0.,0.,-1.));
#538=DIRECTION('ref_axis',(1.,0.,0.));
#539=DIRECTION('center_axis',(0.,0.,1.));
#540=DIRECTION('ref_axis',(1.,0.,0.));
#541=CARTESIAN_POINT('',(0.,0.,0.));
#542=CARTESIAN_POINT('Origin',(20.3,-17.78,5.1));
#543=CARTESIAN_POINT('',(7.5,-17.78,5.1));
#544=CARTESIAN_POINT('',(7.5,-17.78,7.3));
#545=CARTESIAN_POINT('',(7.5,-17.78,5.1));
#546=CARTESIAN_POINT('',(7.50743631341619,-17.78,5.1));
#547=CARTESIAN_POINT('',(10.15,-17.78,5.1));
#548=CARTESIAN_POINT('',(7.50743631341619,-17.78,7.3));
#549=CARTESIAN_POINT('',(7.50743631341619,-17.78,5.1));
#550=CARTESIAN_POINT('',(10.15,-17.78,7.3));
#551=CARTESIAN_POINT('Origin',(20.3,-17.78,5.1));
#552=CARTESIAN_POINT('',(-7.5,-17.78,7.3));
#553=CARTESIAN_POINT('',(-7.5,-17.78,5.1));
#554=CARTESIAN_POINT('',(-7.5,-17.78,5.1));
#555=CARTESIAN_POINT('',(-7.50743631341619,-17.78,7.3));
#556=CARTESIAN_POINT('',(10.15,-17.78,7.3));
#557=CARTESIAN_POINT('',(-7.50743631341619,-17.78,5.1));
#558=CARTESIAN_POINT('',(-7.50743631341619,-17.78,5.1));
#559=CARTESIAN_POINT('',(10.15,-17.78,5.1));
#560=CARTESIAN_POINT('Origin',(-7.5,-14.4,5.1));
#561=CARTESIAN_POINT('',(-7.5,-14.584580899018,5.1));
#562=CARTESIAN_POINT('',(-7.5,-7.2,5.1));
#563=CARTESIAN_POINT('',(-7.5,-14.584580899018,7.3));
#564=CARTESIAN_POINT('',(-7.5,-14.584580899018,5.1));
#565=CARTESIAN_POINT('',(-7.5,-7.2,7.3));
#566=CARTESIAN_POINT('Origin',(0.,0.,5.1));
#567=CARTESIAN_POINT('',(-15.6243044967301,-11.3300974838463,5.1));
#568=CARTESIAN_POINT('Origin',(0.,0.,5.1));
#569=CARTESIAN_POINT('',(-15.974097914175,-11.5320508075689,5.1));
#570=CARTESIAN_POINT('',(-15.974097914175,-11.5320508075689,5.1));
#571=CARTESIAN_POINT('',(-17.974097914175,-8.06794919243113,5.1));
#572=CARTESIAN_POINT('',(-17.974097914175,-8.06794919243113,5.1));
#573=CARTESIAN_POINT('',(-17.6243044967301,-7.86599586870854,5.1));
#574=CARTESIAN_POINT('',(-17.3678801315259,-7.71794919243113,5.1));
#575=CARTESIAN_POINT('',(-2.,19.1960933525548,5.1));
#576=CARTESIAN_POINT('Origin',(0.,0.,5.1));
#577=CARTESIAN_POINT('',(-2.,19.6,5.1));
#578=CARTESIAN_POINT('',(-2.,19.6,5.1));
#579=CARTESIAN_POINT('',(2.,19.6,5.1));
#580=CARTESIAN_POINT('',(2.,19.6,5.1));
#581=CARTESIAN_POINT('',(2.,19.1960933525548,5.1));
#582=CARTESIAN_POINT('',(2.,18.9,5.1));
#583=CARTESIAN_POINT('',(17.6243044967301,-7.86599586870855,5.1));
#584=CARTESIAN_POINT('Origin',(0.,0.,5.1));
#585=CARTESIAN_POINT('',(17.974097914175,-8.06794919243113,5.1));
#586=CARTESIAN_POINT('',(17.974097914175,-8.06794919243113,5.1));
#587=CARTESIAN_POINT('',(15.974097914175,-11.5320508075689,5.1));
#588=CARTESIAN_POINT('',(15.974097914175,-11.5320508075689,5.1));
#589=CARTESIAN_POINT('',(15.6243044967301,-11.3300974838463,5.1));
#590=CARTESIAN_POINT('',(15.3678801315259,-11.1820508075689,5.1));
#591=CARTESIAN_POINT('Origin',(0.,0.,5.1));
#592=CARTESIAN_POINT('',(7.5,-14.584580899018,5.1));
#593=CARTESIAN_POINT('',(7.5,-10.15,5.1));
#594=CARTESIAN_POINT('Origin',(0.,0.,5.1));
#595=CARTESIAN_POINT('Origin',(7.5,-20.3,5.1));
#596=CARTESIAN_POINT('',(7.5,-14.584580899018,7.3));
#597=CARTESIAN_POINT('',(7.5,-10.15,7.3));
#598=CARTESIAN_POINT('',(7.5,-14.584580899018,5.1));
#599=CARTESIAN_POINT('Origin',(0.,0.,5.1));
#600=CARTESIAN_POINT('',(-15.6243044967301,-11.3300974838463,7.3));
#601=CARTESIAN_POINT('Origin',(0.,0.,7.3));
#602=CARTESIAN_POINT('',(-15.6243044967301,-11.3300974838463,5.1));
#603=CARTESIAN_POINT('Origin',(0.,0.,5.1));
#604=CARTESIAN_POINT('',(15.6243044967301,-11.3300974838463,7.3));
#605=CARTESIAN_POINT('',(15.6243044967301,-11.3300974838463,5.1));
#606=CARTESIAN_POINT('Origin',(0.,0.,7.3));
#607=CARTESIAN_POINT('Origin',(17.974097914175,-8.06794919243113,5.1));
#608=CARTESIAN_POINT('',(17.6243044967301,-7.86599586870855,7.3));
#609=CARTESIAN_POINT('',(17.6243044967301,-7.86599586870855,5.1));
#610=CARTESIAN_POINT('',(17.974097914175,-8.06794919243113,7.3));
#611=CARTESIAN_POINT('',(17.974097914175,-8.06794919243113,7.3));
#612=CARTESIAN_POINT('',(17.974097914175,-8.06794919243113,5.1));
#613=CARTESIAN_POINT('Origin',(15.3678801315259,-11.1820508075689,5.1));
#614=CARTESIAN_POINT('',(15.974097914175,-11.5320508075689,7.3));
#615=CARTESIAN_POINT('',(15.974097914175,-11.5320508075689,5.1));
#616=CARTESIAN_POINT('',(15.3678801315259,-11.1820508075689,7.3));
#617=CARTESIAN_POINT('Origin',(15.974097914175,-11.5320508075689,5.1));
#618=CARTESIAN_POINT('',(15.974097914175,-11.5320508075689,7.3));
#619=CARTESIAN_POINT('Origin',(-17.3678801315259,-7.71794919243113,5.1));
#620=CARTESIAN_POINT('',(-17.6243044967301,-7.86599586870854,7.3));
#621=CARTESIAN_POINT('',(-17.6243044967301,-7.86599586870854,5.1));
#622=CARTESIAN_POINT('',(-17.974097914175,-8.06794919243113,7.3));
#623=CARTESIAN_POINT('',(-17.974097914175,-8.06794919243113,5.1));
#624=CARTESIAN_POINT('',(-17.3678801315259,-7.71794919243113,7.3));
#625=CARTESIAN_POINT('Origin',(-15.974097914175,-11.5320508075689,5.1));
#626=CARTESIAN_POINT('',(-15.974097914175,-11.5320508075689,7.3));
#627=CARTESIAN_POINT('',(-15.974097914175,-11.5320508075689,7.3));
#628=CARTESIAN_POINT('',(-15.974097914175,-11.5320508075689,5.1));
#629=CARTESIAN_POINT('Origin',(-17.974097914175,-8.06794919243113,5.1));
#630=CARTESIAN_POINT('',(-17.974097914175,-8.06794919243113,7.3));
#631=CARTESIAN_POINT('Origin',(0.,0.,5.1));
#632=CARTESIAN_POINT('',(-2.,19.1960933525548,7.3));
#633=CARTESIAN_POINT('Origin',(0.,0.,7.3));
#634=CARTESIAN_POINT('',(-2.,19.1960933525548,5.1));
#635=CARTESIAN_POINT('Origin',(0.,0.,5.1));
#636=CARTESIAN_POINT('',(2.,19.1960933525548,7.3));
#637=CARTESIAN_POINT('',(2.,19.1960933525548,5.1));
#638=CARTESIAN_POINT('Origin',(0.,0.,7.3));
#639=CARTESIAN_POINT('Origin',(-2.,19.6,5.1));
#640=CARTESIAN_POINT('',(-2.,19.6,7.3));
#641=CARTESIAN_POINT('',(-2.,19.6,7.3));
#642=CARTESIAN_POINT('',(-2.,19.6,5.1));
#643=CARTESIAN_POINT('Origin',(2.,18.9,5.1));
#644=CARTESIAN_POINT('',(2.,19.6,7.3));
#645=CARTESIAN_POINT('',(2.,19.6,5.1));
#646=CARTESIAN_POINT('',(2.,18.9,7.3));
#647=CARTESIAN_POINT('Origin',(2.,19.6,5.1));
#648=CARTESIAN_POINT('',(2.,19.6,7.3));
#649=CARTESIAN_POINT('Origin',(0.,0.,5.1));
#650=CARTESIAN_POINT('Origin',(0.,0.,7.3));
#651=CARTESIAN_POINT('Origin',(0.,0.,7.3));
#652=UNCERTAINTY_MEASURE_WITH_UNIT(LENGTH_MEASURE(0.01),#656,
'DISTANCE_ACCURACY_VALUE',
'Maximum model space distance between geometric entities at asserted c
onnectivities');
#653=UNCERTAINTY_MEASURE_WITH_UNIT(LENGTH_MEASURE(0.01),#656,
'DISTANCE_ACCURACY_VALUE',
'Maximum model space distance between geometric entities at asserted c
onnectivities');
#654=(
GEOMETRIC_REPRESENTATION_CONTEXT(3)
GLOBAL_UNCERTAINTY_ASSIGNED_CONTEXT((#652))
GLOBAL_UNIT_ASSIGNED_CONTEXT((#656,#658,#659))
REPRESENTATION_CONTEXT('','3D')
);
#655=(
GEOMETRIC_REPRESENTATION_CONTEXT(3)
GLOBAL_UNCERTAINTY_ASSIGNED_CONTEXT((#653))
GLOBAL_UNIT_ASSIGNED_CONTEXT((#656,#658,#659))
REPRESENTATION_CONTEXT('','3D')
);
#656=(
LENGTH_UNIT()
NAMED_UNIT(*)
SI_UNIT(.MILLI.,.METRE.)
);
#657=(
LENGTH_UNIT()
NAMED_UNIT(*)
SI_UNIT($,.METRE.)
);
#658=(
NAMED_UNIT(*)
PLANE_ANGLE_UNIT()
SI_UNIT($,.RADIAN.)
);
#659=(
NAMED_UNIT(*)
SI_UNIT($,.STERADIAN.)
SOLID_ANGLE_UNIT()
);
#660=SHAPE_DEFINITION_REPRESENTATION(#661,#662);
#661=PRODUCT_DEFINITION_SHAPE('',$,#664);
#662=SHAPE_REPRESENTATION('',(#404),#654);
#663=PRODUCT_DEFINITION_CONTEXT('part definition',#668,'design');
#664=PRODUCT_DEFINITION('2026-09-26-20-03-12-646','Klemmring',#665,#663);
#665=PRODUCT_DEFINITION_FORMATION('',$,#670);
#666=PRODUCT_RELATED_PRODUCT_CATEGORY('Klemmring','Klemmring',(#670));
#667=APPLICATION_PROTOCOL_DEFINITION('international standard',
'automotive_design',2009,#668);
#668=APPLICATION_CONTEXT(
'Core Data for Automotive Mechanical Design Process');
#669=PRODUCT_CONTEXT('part definition',#668,'mechanical');
#670=PRODUCT('2026-09-26-20-03-12-646','Klemmring',$,(#669));
#671=PRESENTATION_STYLE_ASSIGNMENT((#673));
#672=PRESENTATION_STYLE_ASSIGNMENT((#674));
#673=SURFACE_STYLE_USAGE(.BOTH.,#675);
#674=SURFACE_STYLE_USAGE(.BOTH.,#676);
#675=SURFACE_SIDE_STYLE('',(#677));
#676=SURFACE_SIDE_STYLE('',(#678));
#677=SURFACE_STYLE_FILL_AREA(#679);
#678=SURFACE_STYLE_FILL_AREA(#680);
#679=FILL_AREA_STYLE('Stahl - satiniert',(#681));
#680=FILL_AREA_STYLE('Kunststoff - matt (Grau)',(#682));
#681=FILL_AREA_STYLE_COLOUR('Stahl - satiniert',#683);
#682=FILL_AREA_STYLE_COLOUR('Kunststoff - matt (Grau)',#684);
#683=COLOUR_RGB('Stahl - satiniert',0.627450980392157,0.627450980392157,
0.627450980392157);
#684=COLOUR_RGB('Kunststoff - matt (Grau)',0.701960784313725,0.701960784313725,
0.701960784313725);
ENDSEC;
END-ISO-10303-21;
